<?xml version="1.0" encoding="UTF-8"?>
<svg version="1.1" xmlns="http://www.w3.org/2000/svg" width="1024" height="1024">
<path d="M0 0 C-0.28746094 0.69351563 -0.57492187 1.38703125 -0.87109375 2.1015625 C-2.06343772 5.1628747 -3.08302147 8.23917901 -4.0625 11.375 C-4.40410156 12.45523438 -4.74570312 13.53546875 -5.09765625 14.6484375 C-24.69001292 87.420048 6.10139518 191.65093361 23.953125 307.03955078 C24.15811615 308.30736893 24.3631073 309.57518707 24.5743103 310.88142395 C24.95794195 313.24799946 25.34328716 315.61429805 25.73062134 317.98027039 C25.89895477 319.01521133 26.06728821 320.05015228 26.24072266 321.11645508 C26.46195297 322.46734978 26.46195297 322.46734978 26.68765259 323.84553528 C27 326 27 326 27 328 C52.37141255 324.47669077 74.27884978 319.52800569 91.5 298.9375 C92.325 297.968125 93.15 296.99875 94 296 C94.66 296 95.32 296 96 296 C93.77733844 308.16907205 80.07213935 319.86791517 70.55859375 326.703125 C58.96453791 334.39903508 43.29391496 344 29 344 C29.28738037 345.25603027 29.57476074 346.51206055 29.87084961 347.80615234 C31.07176766 353.21440059 32.07549477 358.65156321 33.06640625 364.1015625 C38.05749764 391.23688495 43.3520415 418.21866451 50 445 C50.25493225 446.03296204 50.25493225 446.03296204 50.51501465 447.08679199 C62.56243694 500.49793704 62.56243694 500.49793704 96.125 541.5 C103.54956777 545.53732257 110.58368173 546.87643131 119 546 C121.17653765 545.07635735 121.17653765 545.07635735 123 544 C124.32796291 543.64587656 125.66216607 543.31478446 127 543 C132.40187858 541.71383843 136.22752019 538.89503189 140.6328125 535.65625 C142.70612064 534.20561856 144.70746665 533.05646698 147 532 C147 531.34 147 530.68 147 530 C148.16035569 528.87377241 149.32234189 527.74917945 150.4921875 526.6328125 C153.89719149 522.94552838 156.75665061 518.48669878 159 514 C159.66 514 160.32 514 161 514 C159.63486434 523.46954866 153.06487425 531.45977322 146.6015625 538.16015625 C144.78251524 540.01184817 144.78251524 540.01184817 144 543 C142.66666667 543.66666667 141.33333333 544.33333333 140 545 C138.82645087 546.14001915 137.65737559 547.2852796 136.51953125 548.4609375 C129.40205604 555.66989697 121.42200273 561.44396135 113 567 C112.17757813 567.55816406 111.35515625 568.11632812 110.5078125 568.69140625 C97.25412508 577.23713399 81.2718823 582.42664339 65.54296875 579.31640625 C51.25141634 575.23068367 39.19918625 566.58342459 30 555 C29.28972656 554.11441406 28.57945312 553.22882812 27.84765625 552.31640625 C9 528.05608974 9 528.05608974 9 519 C8.34 518.67 7.68 518.34 7 518 C5.1672911 514.13681409 3.78580686 510.07432666 2.3125 506.0625 C1.86551758 504.84916992 1.41853516 503.63583984 0.95800781 502.38574219 C-3.12034121 491.15204854 -6.28861392 479.73375017 -9.203125 468.14892578 C-10.00037567 464.99851552 -10.82368887 461.85609298 -11.65625 458.71484375 C-19.20238559 430.22897885 -19.20238559 430.22897885 -19 424 C-19.66 423.67 -20.32 423.34 -21 423 C-21.27867832 420.88318823 -21.54335437 418.76355912 -21.73583984 416.63717651 C-22.18857974 412.11736153 -23.02800726 407.66349359 -23.8125 403.19140625 C-24.16930285 401.12435448 -24.52607267 399.05729702 -24.8828125 396.99023438 C-25.44130688 393.77349321 -26.0009658 390.55695842 -26.56152344 387.34057617 C-27.10648147 384.20802522 -27.64715241 381.07475527 -28.1875 377.94140625 C-28.35419189 376.99318497 -28.52088379 376.04496368 -28.69262695 375.06800842 C-29.72684084 369.06055766 -30.47773629 363.07342324 -31 357 C-31.7011644 356.98862503 -32.4023288 356.97725006 -33.1247406 356.9655304 C-81.32721889 356.12912541 -128.72491153 346.64130635 -176 338 C-176.16363037 338.63599121 -176.32726074 339.27198242 -176.49584961 339.92724609 C-178.52658166 347.61299802 -180.9668102 355.11315736 -183.5625 362.625 C-183.79076477 363.28685303 -184.01902954 363.94870605 -184.25421143 364.63061523 C-231.4105908 501.09704883 -231.4105908 501.09704883 -265 544 C-265.77601563 545.01449219 -266.55203125 546.02898438 -267.3515625 547.07421875 C-285.53306137 570.10625883 -308.87100994 585.31040037 -338.375 588.8125 C-339.9152613 588.90326063 -341.45747719 588.96442287 -343 589 C-344.49853516 589.05800781 -344.49853516 589.05800781 -346.02734375 589.1171875 C-365.98221469 589.54428343 -365.98221469 589.54428343 -370.8671875 585.42578125 C-371.24101562 584.95527344 -371.61484375 584.48476563 -372 584 C-371.23558594 583.92523437 -370.47117187 583.85046875 -369.68359375 583.7734375 C-351.47884059 581.53891906 -338.62939388 573.43544923 -325.3359375 561.1484375 C-323.24603943 559.22629044 -321.10909792 557.39076228 -318.9375 555.5625 C-280.52574321 521.81830728 -253.08806544 464.76456695 -237 417 C-237 416.34 -237 415.68 -237 415 C-236.34 415 -235.68 415 -235 415 C-234.8275325 414.40818939 -234.655065 413.81637878 -234.47737122 413.20663452 C-232.54870729 406.6738001 -230.41860566 400.22821459 -228.19921875 393.7890625 C-227.46148452 391.63415019 -226.72385785 389.47920106 -225.98632812 387.32421875 C-224.84270375 383.98956111 -223.69792783 380.65530903 -222.55102539 377.32177734 C-217.72927629 363.29620003 -213.12958835 349.24582841 -209 335 C-209.64840851 334.93433838 -210.29681702 334.86867676 -210.96487427 334.80102539 C-211.83127533 334.71328857 -212.69767639 334.62555176 -213.59033203 334.53515625 C-214.94605316 334.39811279 -214.94605316 334.39811279 -216.3291626 334.25830078 C-218.1934839 334.06914666 -220.05752044 333.87718012 -221.92138672 333.68359375 C-249.2006321 331.00717956 -280.04004381 335.18450927 -302.1875 352.4375 C-319.80616133 368.23166317 -324.8779463 387.30650813 -327 410 C-327.66 410 -328.32 410 -329 410 C-331.07117803 403.46665167 -331.01335059 398.365389 -330 391.625 C-329.78851318 390.18241821 -329.78851318 390.18241821 -329.57275391 388.71069336 C-324.86822528 359.18916686 -308.40872313 336.62608882 -284.5625 319.0625 C-257.27229058 299.59986212 -225.98546722 292.23858474 -193 291 C-192.88664307 289.86844482 -192.77328613 288.73688965 -192.65649414 287.57104492 C-192.06306617 282.84869559 -190.84346497 278.41899753 -189.49609375 273.86328125 C-189.2533522 273.02081345 -189.01061066 272.17834564 -188.76051331 271.31034851 C-187.73108214 267.73766555 -186.68785967 264.16905853 -185.64477539 260.6003418 C-184.881461 257.98119104 -184.12604596 255.35985229 -183.37109375 252.73828125 C-183.13361923 251.93610672 -182.89614471 251.13393219 -182.651474 250.30744934 C-181.53902006 246.43893884 -180.69115495 243.07197193 -181 239 C-180.34 239 -179.68 239 -179 239 C-178.90638184 238.4622998 -178.81276367 237.92459961 -178.71630859 237.37060547 C-177.18622018 229.153339 -174.92741781 221.15167744 -172.625 213.125 C-172.40990784 212.37266083 -172.19481567 211.62032166 -171.97320557 210.84518433 C-160.3568683 170.36630856 -146.13795458 131.58492139 -125 95 C-124.34 95 -123.68 95 -123 95 C-122.76023437 94.29746094 -122.52046875 93.59492188 -122.2734375 92.87109375 C-107.59095705 59.76795532 -66.9694989 32.78097944 -36 17 C-36 16.34 -36 15.68 -36 15 C-35.30922363 14.90017822 -34.61844727 14.80035645 -33.90673828 14.69750977 C-30.44132502 13.86593865 -27.66036062 12.47281768 -24.4921875 10.83984375 C-23.58123825 10.37584923 -23.58123825 10.37584923 -22.65188599 9.90248108 C-20.72323943 8.91992353 -18.79870089 7.92970185 -16.875 6.9375 C-14.33418241 5.62722284 -11.7895163 4.32490803 -9.2421875 3.02734375 C-8.1166748 2.44718506 -6.99116211 1.86702637 -5.83154297 1.26928711 C-3 0 -3 0 0 0 Z M-70 60 C-121.59555607 94.47214008 -135.4936977 199.34045964 -150.35245419 254.87501049 C-151.48035112 259.0840016 -152.62502071 263.28806394 -153.78164673 267.48924923 C-154.55148654 270.28876426 -155.31487898 273.09001527 -156.07733154 275.89155006 C-156.43933434 277.2154985 -156.8042347 278.53865844 -157.17218018 279.86096764 C-157.67713332 281.6770909 -158.17088748 283.49631686 -158.6640625 285.31567383 C-159.08872803 286.85932365 -159.08872803 286.85932365 -159.52197266 288.43415833 C-160.23408864 291.10545517 -160.23408864 291.10545517 -159 294 C-156.79248152 294.33868777 -154.58394089 294.67071689 -152.375 295 C-151.14523437 295.185625 -149.91546875 295.37125 -148.6484375 295.5625 C-145.3833973 295.95402516 -142.28287549 296.08080924 -139 296 C-139 296.33 -139 296.66 -139 297 C-137.9262915 297.20157715 -136.85258301 297.4031543 -135.74633789 297.61083984 C-131.72603608 298.36601706 -127.70610575 299.12315624 -123.6862793 299.88085938 C-121.95330562 300.20723313 -120.22023442 300.53308947 -118.48706055 300.85839844 C-115.98199454 301.32868437 -113.47729647 301.80088977 -110.97265625 302.2734375 C-110.20977798 302.41623138 -109.44689972 302.55902527 -108.66090393 302.70614624 C-103.415024 303.69845084 -98.20651782 304.81958691 -93 306 C-91.33807617 306.36931641 -91.33807617 306.36931641 -89.64257812 306.74609375 C-83.91796875 308.01822917 -78.19335938 309.29036458 -72.46875 310.5625 C-70.80042114 310.9330249 -70.80042114 310.9330249 -69.09838867 311.31103516 C-67.20767566 311.73145846 -65.31716141 312.15277857 -63.42700195 312.57568359 C-58.68857518 313.63497464 -53.94506569 314.65486817 -49.1875 315.625 C-47.29064453 316.01558594 -47.29064453 316.01558594 -45.35546875 316.4140625 C-41.91097809 317.11467913 -41.91097809 317.11467913 -38 317 C-38.14033111 315.02043559 -38.2874123 313.04134859 -38.4375 311.0625 C-38.51871094 309.96035156 -38.59992188 308.85820312 -38.68359375 307.72265625 C-38.70418084 305.08890097 -38.70418084 305.08890097 -40 304 C-40.1647265 302.42964635 -40.27522912 300.8536334 -40.3671875 299.27734375 C-41.02389098 290.65525804 -42.38163004 282.14722239 -43.66818237 273.6015625 C-46.62556373 253.92704415 -49.35308523 234.22680262 -51.9375 214.5 C-52.09261047 213.31632843 -52.24772095 212.13265686 -52.40753174 210.91311646 C-53.27621889 204.27599716 -54.14070251 197.63834144 -55 191 C-55.66 191 -56.32 191 -57 191 C-56.67 190.34 -56.34 189.68 -56 189 C-56.03896565 186.48221952 -56.14472469 184.00991869 -56.3125 181.5 C-56.35955078 180.75621094 -56.40660156 180.01242187 -56.45507812 179.24609375 C-56.84465516 173.48420133 -57.38078626 167.74148419 -58 162 C-58.08290283 161.21689453 -58.16580566 160.43378906 -58.2512207 159.62695312 C-58.37244029 156.00816357 -58.37244029 156.00816357 -60 153 C-60.17034777 150.62144039 -60.2845791 148.25713212 -60.375 145.875 C-60.6968287 138.82702307 -61.29805045 131.84064764 -62.0402832 124.82495117 C-64.28163409 103.5947984 -65.16073842 82.32507918 -66 61 C-67.90918457 60.38569123 -67.90918457 60.38569123 -70 60 Z " fill="#0E0E0F" transform="translate(453,161)"/>
<path d="M0 0 C4.07200393 1.35733464 5.58640405 4.05684585 7.75390625 7.5390625 C8.16511719 8.02117187 8.57632812 8.50328125 9 9 C9.99 9 10.98 9 12 9 C13.86972244 30.30148063 11.47793444 47.49550734 -2.25 64.6875 C-3.49184897 66.13204746 -4.74164364 67.56980927 -6 69 C-6.66515625 69.84691406 -7.3303125 70.69382812 -8.015625 71.56640625 C-23.48701388 90.54017647 -48.17296989 101.10166253 -72 104 C-72.81855469 104.11085938 -73.63710938 104.22171875 -74.48046875 104.3359375 C-104.56187073 107.78713711 -134.85233424 101.85480659 -164.2671051 96.10386658 C-168.16945633 95.34145114 -172.0746444 94.63365199 -176 94 C-177.50749219 103.58393447 -178.48536947 113.06424415 -179.0625 122.75 C-179.14048828 123.94753906 -179.21847656 125.14507812 -179.29882812 126.37890625 C-180.63035163 147.7493083 -181.15470919 169.15302539 -181.5 190.55859375 C-181.54042587 192.93988926 -181.58108139 195.32118089 -181.62194824 197.70246887 C-181.70724813 202.70522448 -181.79076425 207.70800529 -181.87280273 212.71081543 C-181.97958074 219.22125161 -182.08943672 225.73163133 -182.20032501 232.24199867 C-182.59363146 255.34444706 -182.9819886 278.44689674 -183.28125 301.55078125 C-183.3004445 303.02759299 -183.31964003 304.50440472 -183.33883667 305.98121643 C-183.35263713 307.04339528 -183.35263713 307.04339528 -183.36671638 308.12703228 C-185.66584346 484.83300973 -185.66584346 484.83300973 -226 528 C-228.28848942 530.05536863 -230.62767721 532.04226605 -233 534 C-220.56364006 536.54862784 -208.11699735 539.05012876 -195.625 541.3125 C-194.7187085 541.48362305 -193.81241699 541.65474609 -192.87866211 541.83105469 C-178.59518533 544.36087236 -165.96631119 543.0067972 -153.8046875 534.5625 C-151.86415282 532.8823834 -150.46003571 531.10390239 -149 529 C-149 537.14977366 -155.55499228 544.30749193 -161 550 C-161.66 550 -162.32 550 -163 550 C-163.26296875 550.59683594 -163.5259375 551.19367187 -163.796875 551.80859375 C-165.95985611 555.74830935 -169.56327855 558.1819924 -173 561 C-173.49580566 561.41733398 -173.99161133 561.83466797 -174.50244141 562.26464844 C-188.23187496 573.79254506 -203.07999384 583.66909672 -221.5625 583.3125 C-222.51471436 583.3026709 -223.46692871 583.2928418 -224.44799805 583.28271484 C-232.63265288 583.13583718 -240.98987795 582.79479913 -249 581 C-249.33 580.34 -249.66 579.68 -250 579 C-251.99207277 578.58353297 -251.99207277 578.58353297 -254.390625 578.46875 C-258.02855903 578.17441041 -261.62207824 577.80539777 -265.234375 577.28125 C-286.87158381 574.19133697 -307.2481867 573.65983257 -329 576 C-329 575.34 -329 574.68 -329 574 C-326.44391666 572.3706483 -323.88961007 570.8578676 -321.25 569.375 C-295.03512839 554.28693324 -267.3019945 536.83723217 -258.65161133 506.21826172 C-253.77922169 487.98777399 -249.71705975 468.33286163 -249.9375 449.375 C-249.94652344 448.35148437 -249.95554687 447.32796875 -249.96484375 446.2734375 C-249.97644531 445.52320313 -249.98804688 444.77296875 -250 444 C-249.34 444 -248.68 444 -248 444 C-248.01087646 443.12085938 -248.02175293 442.24171875 -248.03295898 441.3359375 C-248.11507107 428.64844736 -247.694679 415.98716027 -247.27119446 403.30786514 C-245.61631688 353.69287053 -244.92599709 304.09846485 -245.00389099 254.45782852 C-245.03973527 231.12906879 -244.98567409 207.80592952 -244.65301514 184.47920609 C-244.62553816 182.47672003 -244.60179427 180.47418386 -244.578125 178.47164917 C-244.39172798 163.2134266 -243.75311722 148.16312495 -242 133 C-242.66 132.67 -243.32 132.34 -244 132 C-243.34 131.67 -242.68 131.34 -242 131 C-241.27087308 129.07699169 -241.27087308 129.07699169 -240.73828125 126.73046875 C-240.39627686 125.40535278 -240.39627686 125.40535278 -240.04736328 124.0534668 C-239.8048584 123.10769775 -239.56235352 122.16192871 -239.3125 121.1875 C-236.07862078 109.3129435 -231.97043673 100.09087049 -222.69921875 91.62109375 C-220.78231967 89.91086814 -220.78231967 89.91086814 -219 87 C-218.34 86.67 -217.68 86.34 -217 86 C-221.92965579 83.68629263 -227.12440683 82.86638573 -232.4375 81.875 C-233.36626953 81.69324219 -234.29503906 81.51148438 -235.25195312 81.32421875 C-239.89601503 80.4449871 -244.24900345 79.7620536 -249 80 C-249 79.34 -249 78.68 -249 78 C-249.86202026 77.93304932 -249.86202026 77.93304932 -250.74145508 77.86474609 C-257.82853205 77.24298649 -264.71060994 75.98913444 -271.6875 74.625 C-313.45197771 66.79256588 -359.08909259 62.98902712 -396.171875 88.15234375 C-398.03034681 89.51178147 -399.87402666 90.89191424 -401.6953125 92.30078125 C-403.74432105 93.81149094 -405.68893057 94.95096618 -408 96 C-408 96.66 -408 97.32 -408 98 C-409.11786148 99.11786148 -410.23953772 100.23205216 -411.375 101.33203125 C-423.46124351 113.73786293 -428.8273022 126.80697447 -429 144 C-427.92827684 159.51446853 -423.02612825 173.82252487 -411.375 184.5625 C-408.40016048 187.14534803 -405.71784103 188.68897185 -402 190 C-402 190.66 -402 191.32 -402 192 C-403.98 191.67 -405.96 191.34 -408 191 C-408.33 191.66 -408.66 192.32 -409 193 C-409.33 192.01 -409.66 191.02 -410 190 C-411.47745651 188.77886635 -413.00741774 187.6206089 -414.5625 186.5 C-427.89441446 176.06301554 -433.25386206 161.72595499 -435.49609375 145.453125 C-438.42806149 121.23207224 -430.89836306 95.42815698 -415.82421875 76.16015625 C-411.7105938 71.28899009 -407.36943018 66.64015856 -403 62 C-402.35289062 61.28714844 -401.70578125 60.57429688 -401.0390625 59.83984375 C-375.85435065 33.06046674 -338.84947087 23.69558818 -303.3671875 22.09765625 C-258.58477196 20.7988623 -214.45267528 32.10783264 -171.33984375 42.8984375 C-170.64385889 43.07261137 -169.94787403 43.24678524 -169.23079872 43.42623711 C-162.16423794 45.19556844 -155.09923716 46.97089596 -148.03789902 48.76096344 C-127.12618059 54.0604916 -106.19140451 59.06758904 -84.9375 62.8125 C-83.75607422 63.02841797 -82.57464844 63.24433594 -81.35742188 63.46679688 C-80.21724609 63.66982422 -79.07707031 63.87285156 -77.90234375 64.08203125 C-76.90710693 64.25968018 -75.91187012 64.4373291 -74.88647461 64.62036133 C-71.94918789 65.07126781 -71.94918789 65.07126781 -68.75610352 64.99487305 C-66 65 -66 65 -64 66 C-44.06099943 68.53640997 -25.34981471 65.27814271 -9 53 C-8.37351562 52.55011719 -7.74703125 52.10023438 -7.1015625 51.63671875 C2.12732862 44.48332061 5.8079792 34.12227029 7.28125 22.84765625 C7.68368986 14.64794415 5.02208884 6.40749266 0 0 Z " fill="#0D0D0E" transform="translate(940,167)"/>
<path d="M0 0 C1.32 0.33 2.64 0.66 4 1 C3.51789062 1.845625 3.03578125 2.69125 2.5390625 3.5625 C-2.45287357 12.33201801 -2.45287357 12.33201801 -5 22 C-5.13148438 22.95132812 -5.26296875 23.90265625 -5.3984375 24.8828125 C-7.22069784 41.68810226 -3.37449407 57.55985309 7 71 C11.24563911 75.4713935 15.13568796 78.93205838 21 81 C21 81.66 21 82.32 21 83 C18.03 82.505 18.03 82.505 15 82 C14.67 82.66 14.34 83.32 14 84 C13.67 83.01 13.34 82.02 13 81 C11.52254349 79.77886635 9.99258226 78.6206089 8.4375 77.5 C-4.89294787 67.06416366 -10.22448613 52.74825927 -12.50390625 36.48828125 C-13.53702083 28.00003753 -13.6040237 19.42112443 -12 11 C-11.34 11.66 -10.68 12.32 -10 13 C-9.34 10.36 -8.68 7.72 -8 5 C-7.34 6.32 -6.68 7.64 -6 9 C-5.34 8.67 -4.68 8.34 -4 8 C-3.67 7.01 -3.34 6.02 -3 5 C-2.34 4.01 -1.68 3.02 -1 2 C-0.67 1.34 -0.34 0.68 0 0 Z " fill="#181718" transform="translate(517,276)"/>
<path d="M0 0 C0.66 0 1.32 0 2 0 C-0.34086157 12.81621712 -14.3045969 23.87003172 -24.30078125 31.1875 C-26.49725537 32.66241171 -28.59900824 33.90501088 -31 35 C-31 34.34 -31 33.68 -31 33 C-31.61875 33.20625 -32.2375 33.4125 -32.875 33.625 C-33.57625 33.74875 -34.2775 33.8725 -35 34 C-35.66 33.34 -36.32 32.68 -37 32 C-37 31.01 -37 30.02 -37 29 C-36.01 28.67 -35.02 28.34 -34 28 C-34.33 27.34 -34.66 26.68 -35 26 C-33.94941406 25.50371094 -32.89882813 25.00742187 -31.81640625 24.49609375 C-20.4871634 19.05357463 -5.89925525 11.79851049 0 0 Z " fill="#1B1A1A" transform="translate(547,457)"/>
<path d="M0 0 C0.66 1.32 1.32 2.64 2 4 C3.65 3.67 5.3 3.34 7 3 C6.45771032 6.3184891 5.02312965 8.77943609 3.27001953 11.61621094 C-4.72210538 24.60116084 -6.71202017 38.05265513 -8 53 C-8.66 53 -9.32 53 -10 53 C-12.07157265 46.46540686 -12.01084363 41.36654028 -11 34.625 C-10.86335938 33.67052979 -10.72671875 32.71605957 -10.5859375 31.73266602 C-8.88037979 20.85521878 -6.09574937 9.30690306 0 0 Z M2 0 C2.99 0.495 2.99 0.495 4 1 C3.01 1.495 3.01 1.495 2 2 C2 1.34 2 0.68 2 0 Z " fill="#181818" transform="translate(134,518)"/>
<path d="M0 0 C4.07200393 1.35733464 5.58640405 4.05684585 7.75390625 7.5390625 C8.37072266 8.26222656 8.37072266 8.26222656 9 9 C9.99 9 10.98 9 12 9 C13.51326306 26.24038982 12.71161623 38.24147988 5 54 C4.67 54 4.34 54 4 54 C4.45822468 50.53058454 4.89131683 47.32604951 6 44 C5.34 43.67 4.68 43.34 4 43 C3.67 43.66 3.34 44.32 3 45 C2.34 44.67 1.68 44.34 1 44 C2.03559507 40.73389246 3.16420618 37.63217816 4.5625 34.5 C8.50761668 24.89449852 7.478348 15.56181856 4 6 C2.81224198 3.78200026 1.55817619 1.9880179 0 0 Z " fill="#1B1A1A" transform="translate(940,167)"/>
<path d="M0 0 C0.33 0 0.66 0 1 0 C1.09796875 0.88300781 1.1959375 1.76601563 1.296875 2.67578125 C3.29382159 18.70299916 8.36781609 31.65689448 20.7890625 42.44140625 C23.11064499 44.07799886 25.32884004 45.05806465 28 46 C28 46.66 28 47.32 28 48 C26.02 47.67 24.04 47.34 22 47 C21.67 47.66 21.34 48.32 21 49 C20.67 48.01 20.34 47.02 20 46 C18.52254349 44.77886635 16.99258226 43.6206089 15.4375 42.5 C5.39383286 34.63724344 -2.13779658 23.08184921 -3.8125 10.25 C-3.874375 9.1775 -3.93625 8.105 -4 7 C-3.01 7 -2.02 7 -1 7 C-0.67 4.69 -0.34 2.38 0 0 Z " fill="#191818" transform="translate(510,311)"/>
<path d="M0 0 C0.33 0 0.66 0 1 0 C1.17607807 32.01370114 0.93110135 64.0341096 -1 96 C-1.33 96 -1.66 96 -2 96 C-3.51251195 66.99475384 -2.69259142 38.02026639 -2 9 C-1.34 9 -0.68 9 0 9 C0 6.03 0 3.06 0 0 Z " fill="#151515" transform="translate(697,464)"/>
<path d="M0 0 C0.66 0 1.32 0 2 0 C0.63486434 9.46954866 -5.93512575 17.45977322 -12.3984375 24.16015625 C-14.21748476 26.01184817 -14.21748476 26.01184817 -15 29 C-16.3153341 29.70151152 -17.65117592 30.36525925 -19 31 C-20.70921589 32.5412312 -20.70921589 32.5412312 -22 34 C-22.99 33.34 -23.98 32.68 -25 32 C-25.66 31.67 -26.32 31.34 -27 31 C-27.99 30.34 -28.98 29.68 -30 29 C-29.18015625 28.54109375 -28.3603125 28.0821875 -27.515625 27.609375 C-26.43796875 26.99578125 -25.3603125 26.3821875 -24.25 25.75 C-23.18265625 25.14671875 -22.1153125 24.5434375 -21.015625 23.921875 C-18.25243227 22.16087653 -16.27850269 20.31955679 -14 18 C-13.34 18 -12.68 18 -12 18 C-12 17.34 -12 16.68 -12 16 C-10.83964431 14.87377241 -9.67765811 13.74917945 -8.5078125 12.6328125 C-5.10280851 8.94552838 -2.24334939 4.48669878 0 0 Z " fill="#161515" transform="translate(612,675)"/>
<path d="M0 0 C0.33 0 0.66 0 1 0 C1.10782498 28.68266632 1.20239563 57.33757448 0 86 C-0.33 86 -0.66 86 -1 86 C-1.73964434 70.32190062 -2.14027702 54.69543984 -2 39 C-1.67 39 -1.34 39 -1 39 C-0.67 26.13 -0.34 13.26 0 0 Z " fill="#262626" transform="translate(755,462)"/>
<path d="M0 0 C2.61244358 1.30622179 2.99902479 2.27489841 4 5 C3.95166016 7.74902344 3.95166016 7.74902344 3.5390625 10.859375 C3.39726562 11.97441406 3.25546875 13.08945312 3.109375 14.23828125 C2.94953125 15.39714844 2.7896875 16.55601562 2.625 17.75 C2.47289063 18.92433594 2.32078125 20.09867188 2.1640625 21.30859375 C1.78698801 24.20735389 1.39857797 27.10413145 1 30 C0.34 30 -0.32 30 -1 30 C-3.29200307 23.07452311 -2.7858807 17.63379916 -1.625 10.5 C-1.47289063 9.48679687 -1.32078125 8.47359375 -1.1640625 7.4296875 C-0.78986828 4.9506508 -0.40159908 2.47471866 0 0 Z " fill="#232323" transform="translate(125,541)"/>
<path d="M0 0 C0.99 0.33 1.98 0.66 3 1 C3.48010219 5.29156254 3.95890962 9.58326862 4.4375 13.875 C4.57220703 15.07898438 4.70691406 16.28296875 4.84570312 17.5234375 C5.23472771 21.01517035 5.61809357 24.50748232 6 28 C6.11093994 28.98564941 6.22187988 29.97129883 6.33618164 30.98681641 C6.4314917 31.86772949 6.52680176 32.74864258 6.625 33.65625 C6.70878906 34.41486328 6.79257812 35.17347656 6.87890625 35.95507812 C7.04384272 38.74037619 6.64079026 41.29444114 6 44 C5.67 44 5.34 44 5 44 C4.28186804 38.8596267 3.56999886 33.71843815 2.86376953 28.57641602 C2.62295177 26.8294367 2.38046255 25.0826869 2.13623047 23.33618164 C1.78427181 20.81716321 1.43845055 18.29736437 1.09375 15.77734375 C0.9843811 15.00414291 0.87501221 14.23094208 0.7623291 13.43431091 C0.15035477 8.90893314 -0.10577252 4.56672845 0 0 Z " fill="#1A1A1A" transform="translate(400,368)"/>
<path d="M0 0 C0.66 0.33 1.32 0.66 2 1 C1.49272737 4.88909014 0.85759854 8.67280652 0 12.5 C-1.40204874 19.25913047 -1.65151073 26.12192228 -2 33 C-2.33 33 -2.66 33 -3 33 C-3.33 34.98 -3.66 36.96 -4 39 C-4.66 38.67 -5.32 38.34 -6 38 C-5.01 27.605 -5.01 27.605 -4 17 C-4.66 16.67 -5.32 16.34 -6 16 C-5.34 15.67 -4.68 15.34 -4 15 C-3.20058692 12.47630543 -2.5063892 10.00281094 -1.875 7.4375 C-1.69324219 6.72658203 -1.51148438 6.01566406 -1.32421875 5.28320312 C-0.87555535 3.52397031 -0.43684043 1.76220583 0 0 Z " fill="#191919" transform="translate(702,283)"/>
<path d="M0 0 C0.33 0 0.66 0 1 0 C1.0849339 16.25540488 0.8159219 32.49804438 0.5 48.75 C0.45165124 51.30859051 0.40347306 53.86718425 0.35546875 56.42578125 C0.23894077 62.61722601 0.12032599 68.80862794 0 75 C-0.33 75 -0.66 75 -1 75 C-1.15361109 67.45512064 -1.3017928 59.91015145 -1.4429636 52.36502934 C-1.50868092 48.86186429 -1.5762974 45.35875701 -1.64819336 41.85571289 C-1.7306875 37.83228789 -1.80503044 33.80874879 -1.87890625 29.78515625 C-1.90594131 28.52163834 -1.93297638 27.25812042 -1.96083069 25.95631409 C-1.98092697 24.795186 -2.00102325 23.63405792 -2.02172852 22.43774414 C-2.04171402 21.40960098 -2.06169952 20.38145782 -2.08229065 19.32215881 C-2 17 -2 17 -1 16 C-0.76321284 13.30764224 -0.57801975 10.63501844 -0.4375 7.9375 C-0.39431641 7.17888672 -0.35113281 6.42027344 -0.30664062 5.63867188 C-0.20026367 3.75934562 -0.09960066 1.87969756 0 0 Z " fill="#343434" transform="translate(758,312)"/>
<path d="M0 0 C0.33 0 0.66 0 1 0 C1.02478935 4.60815035 1.0429023 9.21626153 1.05493164 13.82446289 C1.05994856 15.39087602 1.06676362 16.9572845 1.07543945 18.52368164 C1.08762094 20.78012239 1.09325481 23.03650102 1.09765625 25.29296875 C1.10281754 25.98899704 1.10797882 26.68502533 1.11329651 27.40214539 C1.11371546 31.06470152 0.87148095 34.43868858 0 38 C-0.33 38 -0.66 38 -1 38 C-1.73259082 27.3120232 -2.14036598 16.71460306 -2 6 C-1.67 6 -1.34 6 -1 6 C-0.67 4.02 -0.34 2.04 0 0 Z " fill="#1D1D1D" transform="translate(444,189)"/>
<path d="M0 0 C0.66 0 1.32 0 2 0 C0.83312155 8.3523931 -4.62200075 16.58836427 -11 22 C-11.66 21.34 -12.32 20.68 -13 20 C-13.66 19.67 -14.32 19.34 -15 19 C-14.01 18.67 -13.02 18.34 -12 18 C-12 17.34 -12 16.68 -12 16 C-10.83964431 14.87377241 -9.67765811 13.74917945 -8.5078125 12.6328125 C-5.10280851 8.94552838 -2.24334939 4.48669878 0 0 Z " fill="#232322" transform="translate(612,675)"/>
<path d="M0 0 C0.66 0.33 1.32 0.66 2 1 C0.80163468 5.94325693 -2.22465132 8.0680343 -5.9765625 11.15625 C-7.94263344 12.94772777 -9.25483125 14.64843201 -10.6875 16.875 C-13 20 -13 20 -15.8125 20.9375 C-16.534375 20.958125 -17.25625 20.97875 -18 21 C-16.30636743 16.734555 -13.22622172 13.7797093 -10.125 10.5 C-9.59519531 9.93152344 -9.06539063 9.36304688 -8.51953125 8.77734375 C-5.73245525 5.79662476 -2.90692035 2.86479107 0 0 Z " fill="#1E1D1E" transform="translate(362,216)"/>
<path d="M0 0 C0.99 1.0209375 0.99 1.0209375 2 2.0625 C9.0722946 9.4511193 9.0722946 9.4511193 18 14 C18 14.66 18 15.32 18 16 C15.03 15.505 15.03 15.505 12 15 C11.67 15.66 11.34 16.32 11 17 C10.67 16.01 10.34 15.02 10 14 C8.40575805 12.60538976 6.75089338 11.27901249 5.0625 10 C2.06881528 7.72566111 0.09878759 6.14818138 -2 3 C-1.34 3 -0.68 3 0 3 C0 2.01 0 1.02 0 0 Z " fill="#282928" transform="translate(520,343)"/>
<path d="M0 0 C0.99 0.66 1.98 1.32 3 2 C-6.53673388 5.73989564 -15.57798598 8.66974857 -26 7 C-28.39453125 5.46875 -28.39453125 5.46875 -30 4 C-28.98421875 4.03480469 -27.9684375 4.06960938 -26.921875 4.10546875 C-17.69207684 4.32254784 -8.46927508 4.23463754 0 0 Z " fill="#1A1A19" transform="translate(548,734)"/>
<path d="M0 0 C0.66 0 1.32 0 2 0 C1.37027762 3.66770738 -0.22639983 6.05717951 -2.375 9.0625 C-3.28378906 10.34833984 -3.28378906 10.34833984 -4.2109375 11.66015625 C-5.70748191 13.61742722 -7.20529643 15.32090617 -9 17 C-10.32 16.01 -11.64 15.02 -13 14 C-12.14535156 13.15695312 -11.29070313 12.31390625 -10.41015625 11.4453125 C-9.29413953 10.33867407 -8.17826128 9.23189598 -7.0625 8.125 C-6.49853516 7.56941406 -5.93457031 7.01382812 -5.35351562 6.44140625 C-2.30139972 3.5078429 -2.30139972 3.5078429 0 0 Z " fill="#1F1D1E" transform="translate(547,457)"/>
<path d="M0 0 C0.33 0 0.66 0 1 0 C1.13277344 0.94101562 1.26554687 1.88203125 1.40234375 2.8515625 C1.57894531 4.09679687 1.75554687 5.34203125 1.9375 6.625 C2.11152344 7.85476563 2.28554688 9.08453125 2.46484375 10.3515625 C2.93774301 13.57556184 3.45151002 16.78812176 4 20 C3.67 19.34 3.34 18.68 3 18 C2.01 18 1.02 18 0 18 C-0.33 18.66 -0.66 19.32 -1 20 C-1.53394179 18.5882217 -2.05165104 17.17029756 -2.5625 15.75 C-2.85253906 14.96109375 -3.14257812 14.1721875 -3.44140625 13.359375 C-4.04522837 10.80896548 -3.8473932 9.44677771 -3 7 C-2.34 7 -1.68 7 -1 7 C-0.67 4.69 -0.34 2.38 0 0 Z " fill="#2E2D2D" transform="translate(510,311)"/>
<path d="M0 0 C0.66 0.33 1.32 0.66 2 1 C0.68552225 4.56425699 -0.88405795 7.59724634 -3 10.75 C-3.515625 11.52859375 -4.03125 12.3071875 -4.5625 13.109375 C-6 15 -6 15 -8 16 C-8 15.34 -8 14.68 -8 14 C-8.639375 13.87625 -9.27875 13.7525 -9.9375 13.625 C-10.618125 13.41875 -11.29875 13.2125 -12 13 C-12.33 12.34 -12.66 11.68 -13 11 C-12.31292969 10.62488281 -11.62585938 10.24976563 -10.91796875 9.86328125 C-10.01691406 9.35152344 -9.11585938 8.83976563 -8.1875 8.3125 C-7.29417969 7.81363281 -6.40085937 7.31476562 -5.48046875 6.80078125 C-2.74555045 4.81527364 -1.52927625 2.98234273 0 0 Z " fill="#1A1A1B" transform="translate(790,696)"/>
<path d="M0 0 C2.72500248 4.08750372 4.07254018 8.444168 5.6875 13.0625 C6.02072266 13.98611328 6.35394531 14.90972656 6.69726562 15.86132812 C7.00728516 16.74369141 7.31730469 17.62605469 7.63671875 18.53515625 C7.92248779 19.343479 8.20825684 20.15180176 8.50268555 20.98461914 C9 23 9 23 8 25 C4.44865753 23.22432876 3.47448149 19.35767475 2.2109375 15.7421875 C1.71177566 14.21444976 1.22272557 12.68335354 0.74609375 11.1484375 C0.05299495 8.95658963 0.05299495 8.95658963 -1.15234375 6.9140625 C-2 5 -2 5 -1 2 C-0.67 1.34 -0.34 0.68 0 0 Z " fill="#1A1A19" transform="translate(510,636)"/>
<path d="M0 0 C-0.61865234 1.94824219 -0.61865234 1.94824219 -2 4 C-4.70556641 4.63769531 -4.70556641 4.63769531 -8.1015625 4.828125 C-9.31328125 4.90546875 -10.525 4.9828125 -11.7734375 5.0625 C-13.04445312 5.124375 -14.31546875 5.18625 -15.625 5.25 C-17.543125 5.36601562 -17.543125 5.36601562 -19.5 5.484375 C-22.66608142 5.67339479 -25.83212469 5.84448267 -29 6 C-28.67 5.01 -28.34 4.02 -28 3 C-22.10966074 1.85993434 -16.25841885 1.64988498 -10.28125 1.39453125 C-6.71421218 1.22326619 -3.37278082 0 0 0 Z " fill="#191919" transform="translate(262,451)"/>
<path d="M0 0 C0.33 0 0.66 0 1 0 C2.00279556 4.05537841 2.99952558 8.1121854 3.99072266 12.17041016 C4.32858656 13.55004811 4.66808901 14.92928589 5.00927734 16.30810547 C5.50011186 18.29290858 5.98498744 20.27908799 6.46875 22.265625 C6.90864258 24.05661621 6.90864258 24.05661621 7.35742188 25.88378906 C8 29 8 29 8 33 C7.34 33 6.68 33 6 33 C5.34 29.7 4.68 26.4 4 23 C3.67 23 3.34 23 3 23 C2.29590698 20.48279191 1.61163944 17.96274181 0.9375 15.4375 C0.73833984 14.73302734 0.53917969 14.02855469 0.33398438 13.30273438 C-0.93819855 8.45951166 -1.02555455 4.90847177 0 0 Z " fill="#1D1C1D" transform="translate(497,585)"/>
<path d="M0 0 C2 1 2 1 3 3 C0.30054043 5.96940553 -2.45076763 7.36208079 -6.125 8.875 C-8.43561328 10.26136797 -8.84846934 11.62016998 -10 14 C-10.99 14.33 -11.98 14.66 -13 15 C-13.66 14.34 -14.32 13.68 -15 13 C-13.43910974 11.58155991 -11.8762111 10.16532975 -10.3125 8.75 C-9.44238281 7.96109375 -8.57226562 7.1721875 -7.67578125 6.359375 C-5.17579137 4.15500436 -2.62054272 2.05866059 0 0 Z " fill="#1B1B1B" transform="translate(167,481)"/>
<path d="M0 0 C1.7745077 3.41026788 2.77122174 6.11076962 3 10 C2.05719096 12.3570226 1.05352843 14.69034152 0 17 C-0.4054103 19.32189536 -0.76072994 21.65515344 -1 24 C-1.99 23.67 -2.98 23.34 -4 23 C-3.20736384 15.23216563 -1.58110513 7.6370361 0 0 Z " fill="#161616" transform="translate(687,648)"/>
<path d="M0 0 C0.33 0 0.66 0 1 0 C3.59415759 22.80127986 3.59415759 22.80127986 2 32 C1.67 32 1.34 32 1 32 C-1.69537343 10.55734175 -1.69537343 10.55734175 -1 1 C-0.67 0.67 -0.34 0.34 0 0 Z " fill="#1B1A1B" transform="translate(391,274)"/>
<path d="M0 0 C0.99 0.33 1.98 0.66 3 1 C3 3 3 3 0.75 5.5 C-2 8 -2 8 -4.1875 9.0625 C-6.55009339 10.28453106 -6.95394906 11.60902642 -8 14 C-8.66 14.66 -9.32 15.32 -10 16 C-10.99 15.67 -11.98 15.34 -13 15 C-11.58611621 13.24775086 -10.16877217 11.49829345 -8.75 9.75 C-7.96109375 8.77546875 -7.1721875 7.8009375 -6.359375 6.796875 C-4.33534195 4.39752456 -2.25877651 2.17588563 0 0 Z " fill="#181717" transform="translate(536,230)"/>
<path d="M0 0 C-1.2065625 0.9590625 -1.2065625 0.9590625 -2.4375 1.9375 C-4.2750504 3.40603502 -4.2750504 3.40603502 -6 5 C-6.969375 4.979375 -7.93875 4.95875 -8.9375 4.9375 C-13.01138999 4.85332872 -16.72219251 5.70944166 -20.66796875 6.66015625 C-23.14145609 7.0206142 -24.62535971 6.66752561 -27 6 C-23.62883171 4.98676317 -20.25252736 3.99181359 -16.875 3 C-15.92367187 2.71382812 -14.97234375 2.42765625 -13.9921875 2.1328125 C-9.21867563 0.74053821 -5.03044656 -0.40650073 0 0 Z " fill="#1F1F1F" transform="translate(609,193)"/>
<path d="M0 0 C0.99 0.33 1.98 0.66 3 1 C3.70311599 4.39279232 4.38470291 7.78956674 5.0625 11.1875 C5.26166016 12.14720703 5.46082031 13.10691406 5.66601562 14.09570312 C5.84970703 15.02705078 6.03339844 15.95839844 6.22265625 16.91796875 C6.39547119 17.77156982 6.56828613 18.6251709 6.74633789 19.50463867 C7.02313876 22.22762391 6.66418083 24.35776039 6 27 C5.67 27 5.34 27 5 27 C4.3267344 24.10555905 3.66119596 21.20969987 3 18.3125 C2.71382813 17.08756836 2.71382813 17.08756836 2.421875 15.83789062 C1.51266084 11.82760674 0.72999902 8.14282748 1 4 C0.34 3.67 -0.32 3.34 -1 3 C-0.67 2.01 -0.34 1.02 0 0 Z " fill="#1B1B1B" transform="translate(433,581)"/>
<path d="M0 0 C0.625 1.875 0.625 1.875 1 4 C0.34 4.66 -0.32 5.32 -1 6 C-1 5.01 -1 4.02 -1 3 C-9.91 2.67 -18.82 2.34 -28 2 C-28 1.67 -28 1.34 -28 1 C-18.64072209 0.27507668 -9.39355936 -0.14256667 0 0 Z " fill="#1B1B1B" transform="translate(423,515)"/>
<path d="M0 0 C0 0.33 0 0.66 0 1 C-0.74918701 0.93433838 -1.49837402 0.86867676 -2.27026367 0.80102539 C-11.28039075 0.05480679 -20.27903339 -0.303616 -29.3125 -0.5625 C-30.74675315 -0.60584415 -32.18099804 -0.64946251 -33.61523438 -0.69335938 C-37.07673386 -0.79872057 -40.53832884 -0.90041812 -44 -1 C-44 -1.33 -44 -1.66 -44 -2 C-39.75020114 -2.16928564 -35.50018116 -2.3296425 -31.24975586 -2.48217773 C-29.80760925 -2.53513747 -28.36554589 -2.59042271 -26.92358398 -2.64819336 C-6.38247321 -3.4669898 -6.38247321 -3.4669898 0 0 Z " fill="#2C2C2B" transform="translate(644,236)"/>
<path d="M0 0 C0.33 0 0.66 0 1 0 C0.51922524 10.45052509 -0.3127774 20.66371396 -2 31 C-2.33 31 -2.66 31 -3 31 C-4.10914408 24.46837378 -3.78441153 18.56492112 -3 12 C-2.67 12 -2.34 12 -2 12 C-2.03480469 10.95199219 -2.03480469 10.95199219 -2.0703125 9.8828125 C-2.08835937 8.97273437 -2.10640625 8.06265625 -2.125 7.125 C-2.14820313 6.22007812 -2.17140625 5.31515625 -2.1953125 4.3828125 C-2 2 -2 2 0 0 Z " fill="#19191A" transform="translate(752,579)"/>
<path d="M0 0 C0.66 0 1.32 0 2 0 C-0.43294402 8.66736307 -4.65782877 16.17171506 -9 24 C-9.33 22.68 -9.66 21.36 -10 20 C-9.34 20 -8.68 20 -8 20 C-7.90847656 19.16210938 -7.81695312 18.32421875 -7.72265625 17.4609375 C-6.89195787 13.4825658 -5.31535657 10.1873497 -3.4375 6.625 C-3.10814453 5.98433594 -2.77878906 5.34367188 -2.43945312 4.68359375 C-1.63360518 3.11861368 -0.81781507 1.55875979 0 0 Z " fill="#1C1B1C" transform="translate(219,645)"/>
<path d="M0 0 C0.33 0 0.66 0 1 0 C1.26197212 7.59719146 -0.03455064 12.44838801 -4 19 C-4.69579454 21.19130534 -4.69579454 21.19130534 -5 23 C-5.99 22.67 -6.98 22.34 -8 22 C-6.89064059 18.39458191 -5.57083014 14.98550299 -4 11.5625 C-2.27132888 7.75684342 -1.03318525 4.04664222 0 0 Z " fill="#1C1C1C" transform="translate(682,671)"/>
<path d="M0 0 C-0.25 1.875 -0.25 1.875 -1 4 C-3.58152302 5.72101535 -4.84918025 6 -8 6 C-8 6.66 -8 7.32 -8 8 C-10.375 9.6875 -10.375 9.6875 -13 11 C-13.66 10.67 -14.32 10.34 -15 10 C-15 9.01 -15 8.02 -15 7 C-12.87767021 5.82823482 -10.75242209 4.66245215 -8.625 3.5 C-7.72007812 2.99919922 -7.72007812 2.99919922 -6.796875 2.48828125 C-2.2265625 0 -2.2265625 0 0 0 Z " fill="#1C1C1C" transform="translate(191,468)"/>
<path d="M0 0 C0.33 0 0.66 0 1 0 C1.50612064 2.8740422 2.00506541 5.74902873 2.5 8.625 C2.64308594 9.43324219 2.78617187 10.24148438 2.93359375 11.07421875 C3.67876251 15.43877864 4.17272306 19.55238129 4 24 C3.34 24 2.68 24 2 24 C0.0495351 15.81940933 -1.57086446 8.37794379 0 0 Z " fill="#1A1A1A" transform="translate(469,424)"/>
<path d="M0 0 C2.66162814 1.92467196 2.9974149 2.98443402 3.546875 6.29296875 C3.61390625 7.57816406 3.6809375 8.86335938 3.75 10.1875 C3.78601318 10.85789307 3.82202637 11.52828613 3.85913086 12.21899414 C4.0708393 16.95518163 3.8545476 21.34746309 3 26 C2.67 26 2.34 26 2 26 C1.22959149 19.93303301 0.90293888 14.11485027 1 8 C0.34 7.67 -0.32 7.34 -1 7 C-0.67 4.69 -0.34 2.38 0 0 Z " fill="#161616" transform="translate(393,307)"/>
<path d="M0 0 C-0.1875 1.875 -0.1875 1.875 -1 4 C-3.5625 5.25 -3.5625 5.25 -6 6 C-4.35 6.33 -2.7 6.66 -1 7 C-1 7.33 -1 7.66 -1 8 C-7.435 8.495 -7.435 8.495 -14 9 C-14 8.34 -14 7.68 -14 7 C-11.4453125 5.2734375 -11.4453125 5.2734375 -8.125 3.375 C-7.03445313 2.74335937 -5.94390625 2.11171875 -4.8203125 1.4609375 C-2 0 -2 0 0 0 Z " fill="#191A1A" transform="translate(625,734)"/>
<path d="M0 0 C-1.38638728 4.15916184 -4.28503604 5.54003327 -7.8125 7.8125 C-8.44220703 8.24498047 -9.07191406 8.67746094 -9.72070312 9.12304688 C-11.58203125 10.33203125 -11.58203125 10.33203125 -15 12 C-17.44921875 11.26171875 -17.44921875 11.26171875 -19 10 C-17.865625 9.54625 -16.73125 9.0925 -15.5625 8.625 C-11.95278308 7.42904194 -11.95278308 7.42904194 -11 5 C-9.33333333 4.33333333 -7.66666667 3.66666667 -6 3 C-5.67 2.34 -5.34 1.68 -5 1 C-2 0 -2 0 0 0 Z " fill="#171717" transform="translate(576,719)"/>
<path d="M0 0 C0 0.66 0 1.32 0 2 C2.97 2 5.94 2 9 2 C9 2.33 9 2.66 9 3 C-0.85816251 3.30384747 -10.27088552 2.39879438 -20 1 C-20 0.67 -20 0.34 -20 0 C-13.26188501 -1.41030314 -6.80977041 -0.66561666 0 0 Z " fill="#171717" transform="translate(828,268)"/>
<path d="M0 0 C0.33 0 0.66 0 1 0 C1.34077314 3.62433988 1.6712218 7.24955391 2 10.875 C2.14308594 12.39480469 2.14308594 12.39480469 2.2890625 13.9453125 C2.86095879 20.31787113 3.12770164 26.60250235 3 33 C2.67 33 2.34 33 2 33 C1.67 30.69 1.34 28.38 1 26 C0.67 26 0.34 26 0 26 C0.33 21.71 0.66 17.42 1 13 C0.34 13 -0.32 13 -1 13 C-0.67 8.71 -0.34 4.42 0 0 Z " fill="#212121" transform="translate(445,229)"/>
<path d="M0 0 C-9.33854735 -0.60707016 -18.67082393 -1.26058807 -28 -2 C-28 -2.33 -28 -2.66 -28 -3 C-6.47476752 -5.803888 -6.47476752 -5.803888 0 0 Z " fill="#222121" transform="translate(672,743)"/>
<path d="M0 0 C4.07200393 1.35733464 5.58640405 4.05684585 7.75390625 7.5390625 C8.37072266 8.26222656 8.37072266 8.26222656 9 9 C9.99 9 10.98 9 12 9 C12 9.99 12 10.98 12 12 C10.68 12.33 9.36 12.66 8 13 C7.67 14.32 7.34 15.64 7 17 C6.82984375 16.27554688 6.6596875 15.55109375 6.484375 14.8046875 C5.05324455 9.09539049 3.64195923 4.64663764 0 0 Z " fill="#2B2B2B" transform="translate(940,167)"/>
<path d="M0 0 C0.66 0.33 1.32 0.66 2 1 C1.62488281 1.43570313 1.24976563 1.87140625 0.86328125 2.3203125 C0.35152344 2.91585937 -0.16023437 3.51140625 -0.6875 4.125 C-1.23792969 4.75792969 -1.78835937 5.39085937 -2.35546875 6.04296875 C-3.98871821 7.93808696 -3.98871821 7.93808696 -5.30078125 9.80078125 C-6.5 11.4375 -6.5 11.4375 -9 14 C-12.3125 14.375 -12.3125 14.375 -15 14 C-10.2347969 9.0759568 -5.11342667 4.55740358 0 0 Z " fill="#242423" transform="translate(130,720)"/>
<path d="M0 0 C0.66 0.66 1.32 1.32 2 2 C1.75903982 6.45776328 -0.23562003 8.6492364 -3 12 C-4.24016669 14.6794645 -4.24016669 14.6794645 -5 17 C-6.2109375 15.421875 -6.2109375 15.421875 -7 13 C-5.98613427 10.5453777 -4.97276745 8.50453746 -3.625 6.25 C-3.28210938 5.64800781 -2.93921875 5.04601562 -2.5859375 4.42578125 C-1.73822182 2.94227881 -0.87094495 1.46998513 0 0 Z " fill="#191919" transform="translate(193,631)"/>
<path d="M0 0 C-1.33333333 3.33333333 -2.66666667 6.66666667 -4 10 C-4.33 9.01 -4.66 8.02 -5 7 C-5.99 7.33 -6.98 7.66 -8 8 C-8.33 6.35 -8.66 4.7 -9 3 C-3.375 0 -3.375 0 0 0 Z " fill="#242424" transform="translate(453,161)"/>
<path d="M0 0 C0.33 0 0.66 0 1 0 C1.12375 1.2375 1.2475 2.475 1.375 3.75 C1.67248564 6.21180149 1.92036197 7.84540852 3.0625 10.0625 C4.485096 13.00253174 4.12341781 15.79113695 4 19 C3.67 19 3.34 19 3 19 C2.67 20.65 2.34 22.3 2 24 C1.67 24 1.34 24 1 24 C-0.03387512 15.9874678 -0.10466648 8.07094823 0 0 Z " fill="#202020" transform="translate(388,251)"/>
<path d="M0 0 C-3.87684087 1.19287411 -6.91621923 2 -11 2 C-10.67 4.31 -10.34 6.62 -10 9 C-10.99 9 -11.98 9 -13 9 C-13 6.36 -13 3.72 -13 1 C-11.59054634 0.43983252 -10.1719969 -0.09748502 -8.75 -0.625 C-7.96109375 -0.92664063 -7.1721875 -1.22828125 -6.359375 -1.5390625 C-3.50082285 -2.09752136 -2.41040161 -1.53690745 0 0 Z " fill="#1A1919" transform="translate(493,503)"/>
<path d="M0 0 C0.33 0 0.66 0 1 0 C0.24455376 8.91426564 0.24455376 8.91426564 -3 13 C-5.1875 14.3125 -5.1875 14.3125 -7 15 C-5.45454854 9.52067211 -2.84456788 4.88570819 0 0 Z " fill="#1D1D1D" transform="translate(519,251)"/>
<path d="M0 0 C1.051875 0.30744141 1.051875 0.30744141 2.125 0.62109375 C7.76853609 2.22367397 13.15876543 3.44894013 19 4 C19 4.33 19 4.66 19 5 C9.80444263 7.6538649 9.80444263 7.6538649 5.48828125 6.08984375 C3.46501664 4.84391958 1.6831701 3.67834727 0 2 C0 1.34 0 0.68 0 0 Z " fill="#1D1D1D" transform="translate(550,704)"/>
<path d="M0 0 C2.39215623 0.53746933 4.7885331 1.05629597 7.1875 1.5625 C8.45980469 1.83191406 9.73210937 2.10132813 11.04296875 2.37890625 C12.01878906 2.58386719 12.99460937 2.78882813 14 3 C10.37821962 4.98172889 9.03033409 4.98519278 5 4 C2.00522926 3.61683068 -0.99659689 3.30753801 -4 3 C-4 2.34 -4 1.68 -4 1 C-4.99 0.67 -5.98 0.34 -7 0 C-3.98968256 -0.93423645 -3.13349732 -1.04449911 0 0 Z " fill="#222121" transform="translate(316,457)"/>
<path d="M0 0 C2.25424122 1.78460763 2.94902388 2.59219106 3.3125 5.5 C3 8 3 8 1 11 C0.34 11 -0.32 11 -1 11 C-2.63676257 12.9600281 -2.63676257 12.9600281 -4 15 C-2.9318153 9.88634986 -1.76892524 4.92772031 0 0 Z " fill="#1B1B1B" transform="translate(293,333)"/>
<path d="M0 0 C-1.32 0 -2.64 0 -4 0 C-4 0.66 -4 1.32 -4 2 C-5.64767247 1.71890887 -7.29313145 1.42481474 -8.9375 1.125 C-10.31228516 0.88136719 -10.31228516 0.88136719 -11.71484375 0.6328125 C-12.46894531 0.42398438 -13.22304687 0.21515625 -14 0 C-14.33 -0.66 -14.66 -1.32 -15 -2 C-13.56359829 -2.19573608 -12.12580496 -2.38127816 -10.6875 -2.5625 C-9.88699219 -2.66691406 -9.08648437 -2.77132812 -8.26171875 -2.87890625 C-4.72797954 -3.06810472 -2.92379886 -1.94919924 0 0 Z " fill="#2A2A2A" transform="translate(96,747)"/>
<path d="M0 0 C0.33 0 0.66 0 1 0 C0.85764543 1.72945653 0.71095618 3.45855654 0.5625 5.1875 C0.48128906 6.15042969 0.40007813 7.11335937 0.31640625 8.10546875 C0.02333849 10.78649602 -0.42703754 13.3662986 -1 16 C-2.51171875 14.7890625 -2.51171875 14.7890625 -4 13 C-4.14453125 10.7734375 -4.14453125 10.7734375 -3.8125 8.375 C-3.71582031 7.57835937 -3.61914062 6.78171875 -3.51953125 5.9609375 C-3.34808594 5.31382812 -3.17664063 4.66671875 -3 4 C-2.34 3.67 -1.68 3.34 -1 3 C-0.67 2.01 -0.34 1.02 0 0 Z " fill="#1B1B1C" transform="translate(748,611)"/>
<path d="M0 0 C0.33 0 0.66 0 1 0 C1.99 6.93 2.98 13.86 4 21 C4.99 21.33 5.98 21.66 7 22 C5.68 22 4.36 22 3 22 C3 21.34 3 20.68 3 20 C2.34 20 1.68 20 1 20 C-0.03026944 13.30324864 -0.10152799 6.7685324 0 0 Z " fill="#202021" transform="translate(476,468)"/>
<path d="M0 0 C1.83203125 1.578125 1.83203125 1.578125 3 3 C-3.7857936 2.45136137 -10.35009036 1.45732062 -17 0 C-17 -0.33 -17 -0.66 -17 -1 C-11.26292279 -2.55056141 -5.61594977 -1.72798454 0 0 Z " fill="#19191A" transform="translate(688,242)"/>
<path d="M0 0 C0.66 0.33 1.32 0.66 2 1 C-1.07517084 11.55808656 -1.07517084 11.55808656 -3 16 C-5 13 -5 13 -4.75 9.375 C-4.5025 8.26125 -4.255 7.1475 -4 6 C-3.34 5.67 -2.68 5.34 -2 5 C-1.27840576 3.35636866 -0.60648579 1.68949614 0 0 Z " fill="#181718" transform="translate(256,553)"/>
<path d="M0 0 C0.33 0 0.66 0 1 0 C1 4.29 1 8.58 1 13 C0.01 13.33 -0.98 13.66 -2 14 C-3.26237731 11.47524538 -3.09856404 9.68799534 -3.0625 6.875 C-3.05347656 5.96492188 -3.04445313 5.05484375 -3.03515625 4.1171875 C-3.02355469 3.41851562 -3.01195312 2.71984375 -3 2 C-2.34 2.66 -1.68 3.32 -1 4 C-0.67 2.68 -0.34 1.36 0 0 Z " fill="#090808" transform="translate(509,306)"/>
<path d="M0 0 C0.66 0 1.32 0 2 0 C1.41892368 3.7602985 0.34800504 6.53035032 -1.5625 9.8125 C-2.01753906 10.60269531 -2.47257813 11.39289062 -2.94140625 12.20703125 C-3.29074219 12.79871094 -3.64007812 13.39039063 -4 14 C-4.33 13.34 -4.66 12.68 -5 12 C-5.66 11.67 -6.32 11.34 -7 11 C-6.57847656 10.37351562 -6.15695312 9.74703125 -5.72265625 9.1015625 C-4.90087891 7.87566406 -4.90087891 7.87566406 -4.0625 6.625 C-3.24458984 5.40683594 -3.24458984 5.40683594 -2.41015625 4.1640625 C-0.98906121 2.07280816 -0.98906121 2.07280816 0 0 Z " fill="#323131" transform="translate(612,675)"/>
<path d="M0 0 C-1.63958758 5.23272633 -3.38952035 10.15196636 -6 15 C-6.66 14.01 -7.32 13.02 -8 12 C-7.67 11.34 -7.34 10.68 -7 10 C-6.34 10 -5.68 10 -5 10 C-5.061875 8.906875 -5.12375 7.81375 -5.1875 6.6875 C-5 3 -5 3 -3.625 1.0625 C-2 0 -2 0 0 0 Z " fill="#1A1A1A" transform="translate(232,621)"/>
<path d="M0 0 C0.89589844 0.01417969 1.79179687 0.02835937 2.71484375 0.04296875 C4.06255859 0.05263672 4.06255859 0.05263672 5.4375 0.0625 C7.65234375 0.23046875 7.65234375 0.23046875 8.65234375 1.23046875 C10.98052339 1.59807606 13.31418225 1.93288456 15.65234375 2.23046875 C15.65234375 2.56046875 15.65234375 2.89046875 15.65234375 3.23046875 C8.88381135 3.33199674 2.34909511 3.26073819 -4.34765625 2.23046875 C-2.34765625 0.23046875 -2.34765625 0.23046875 0 0 Z " fill="#151515" transform="translate(219.34765625,490.76953125)"/>
<path d="M0 0 C2 2 2 2 2 5 C1.34 5 0.68 5 0 5 C-0.28875 5.9075 -0.5775 6.815 -0.875 7.75 C-1.76531776 10.32202908 -2.71494413 12.61346766 -4 15 C-4.66 15 -5.32 15 -6 15 C-4.36041242 9.76727367 -2.61047965 4.84803364 0 0 Z " fill="#1A1919" transform="translate(313,284)"/>
<path d="M0 0 C0.80824219 0.10183594 1.61648438 0.20367187 2.44921875 0.30859375 C3.06410156 0.39238281 3.67898438 0.47617188 4.3125 0.5625 C4.3125 0.8925 4.3125 1.2225 4.3125 1.5625 C2.04389163 2.0929408 -0.22748489 2.61155434 -2.5 3.125 C-4.39685547 3.56005859 -4.39685547 3.56005859 -6.33203125 4.00390625 C-9.6875 4.5625 -9.6875 4.5625 -12.6875 3.5625 C-8.19235806 0.76822258 -5.30739325 -0.69226869 0 0 Z " fill="#1B1A1B" transform="translate(587.6875,235.4375)"/>
<path d="M0 0 C5.7809725 0.63065155 11.3443706 1.65155132 17 3 C13.20960634 5.12999997 10.34263862 5.16702456 6 5 C6 4.34 6 3.68 6 3 C5.38125 2.87625 4.7625 2.7525 4.125 2.625 C2 2 2 2 0 0 Z " fill="#1E1D1D" transform="translate(818,223)"/>
<path d="M0 0 C0.66 0.33 1.32 0.66 2 1 C1.34 1.66 0.68 2.32 0 3 C-0.66 2.67 -1.32 2.34 -2 2 C-2 2.99 -2 3.98 -2 5 C-3.96466413 6.06775224 -5.96855359 7.06553465 -8 8 C-10 7 -10 7 -11 5 C-9.21289414 4.13633178 -7.4201535 3.28431406 -5.625 2.4375 C-4.62726562 1.96183594 -3.62953125 1.48617187 -2.6015625 0.99609375 C-1.74304688 0.66738281 -0.88453125 0.33867187 0 0 Z " fill="#1C1B1C" transform="translate(580,200)"/>
<path d="M0 0 C0.66 0 1.32 0 2 0 C2 0.99 2 1.98 2 3 C2.66 3 3.32 3 4 3 C3.5020163 6.73487777 3.12508244 8.81237635 1 12 C0.34 12 -0.32 12 -1 12 C-1.33 12.66 -1.66 13.32 -2 14 C-1.7834375 13.11248047 -1.7834375 13.11248047 -1.5625 12.20703125 C-0.59177306 8.07470059 0.27593702 4.2770238 0 0 Z " fill="#1E1F1F" transform="translate(272,400)"/>
<path d="M0 0 C0.66 0.66 1.32 1.32 2 2 C1.69903201 6.13830989 1.32101984 8.51847024 -1 12 C-1.99 11.67 -2.98 11.34 -4 11 C-2.7874262 7.27566618 -1.49140021 3.62197194 0 0 Z " fill="#181818" transform="translate(200,616)"/>
<path d="M0 0 C2 3 2 3 1.8125 6.5625 C1 10 1 10 -2 12 C-2.66 11.67 -3.32 11.34 -4 11 C-3.52269162 9.5410574 -3.04308958 8.08286504 -2.5625 6.625 C-2.29566406 5.81289063 -2.02882813 5.00078125 -1.75390625 4.1640625 C-1 2 -1 2 0 0 Z " fill="#1E1D1E" transform="translate(306,299)"/>
<path d="M0 0 C0.33 0 0.66 0 1 0 C1.33772739 2.70784994 1.67030687 5.41616996 2 8.125 C2.09539062 8.88554687 2.19078125 9.64609375 2.2890625 10.4296875 C2.79830188 14.64909952 3.10888068 18.74004344 3 23 C2.67 22.01 2.34 21.02 2 20 C1.34 20 0.68 20 0 20 C0.03255208 18.01432292 0.06510417 16.02864583 0.09765625 14.04296875 C0.08263217 11.79694539 0.08263217 11.79694539 -1 9 C-0.87890625 6.73828125 -0.87890625 6.73828125 -0.5625 4.3125 C-0.46066406 3.50425781 -0.35882813 2.69601562 -0.25390625 1.86328125 C-0.17011719 1.24839844 -0.08632813 0.63351562 0 0 Z " fill="#2A2929" transform="translate(450,280)"/>
<path d="M0 0 C12.66970387 0.96355353 12.66970387 0.96355353 18 2 C18 2.33 18 2.66 18 3 C12.62374766 3.84888195 8.34629602 4.0024305 3 3 C3 2.34 3 1.68 3 1 C2.01 0.67 1.02 0.34 0 0 Z " fill="#1F1E1F" transform="translate(685,193)"/>
<path d="M0 0 C0.66 0.33 1.32 0.66 2 1 C0.11611868 4.57937451 -1.12977956 6.63403985 -5 8 C-6.65740715 8.37668344 -8.32345271 8.72057545 -10 9 C-6.83047153 5.73991357 -3.60062011 2.77762123 0 0 Z " fill="#1D1D1D" transform="translate(656,711)"/>
<path d="M0 0 C0.66 0.33 1.32 0.66 2 1 C1.01 2.485 1.01 2.485 0 4 C0.99 4.99 1.98 5.98 3 7 C2.01 7.66 1.02 8.32 0 9 C-0.66 8.34 -1.32 7.68 -2 7 C-2.66 6.67 -3.32 6.34 -4 6 C-4.99 5.34 -5.98 4.68 -7 4 C-1.7265625 0.77734375 -1.7265625 0.77734375 0 0 Z " fill="#1E1D1E" transform="translate(589,700)"/>
<path d="M0 0 C0.33 0 0.66 0 1 0 C1.41176754 3.60296594 1.1535853 4.78402067 -1 7.8125 C-1.66 8.534375 -2.32 9.25625 -3 10 C-4.32 9.34 -5.64 8.68 -7 8 C-5.85760183 6.66372225 -4.71098945 5.33104612 -3.5625 4 C-2.92441406 3.2575 -2.28632813 2.515 -1.62890625 1.75 C-1.09136719 1.1725 -0.55382812 0.595 0 0 Z " fill="#1D1D1D" transform="translate(148,701)"/>
<path d="M0 0 C-2.475 3.465 -2.475 3.465 -5 7 C-5.99 6.67 -6.98 6.34 -8 6 C-8 4.35 -8 2.7 -8 1 C-4.59449725 -1.06762667 -4.18836538 -1.04709135 0 0 Z " fill="#171717" transform="translate(190,702)"/>
<path d="M0 0 C0.33 0 0.66 0 1 0 C1.33 2.31 1.66 4.62 2 7 C2.33 7 2.66 7 3 7 C2.67 11.95 2.34 16.9 2 22 C1.67 22 1.34 22 1 22 C-0.17402193 14.66236293 -0.09377123 7.41834582 0 0 Z " fill="#333232" transform="translate(504,294)"/>
<path d="M0 0 C0.99 0.66 1.98 1.32 3 2 C1.04414675 3.00484204 -0.91476237 4.00373805 -2.875 5 C-3.96554687 5.556875 -5.05609375 6.11375 -6.1796875 6.6875 C-9 8 -9 8 -11 8 C-10 5 -10 5 -7.71484375 3.61328125 C-6.79832031 3.18402344 -5.88179687 2.75476563 -4.9375 2.3125 C-4.01839844 1.87550781 -3.09929688 1.43851562 -2.15234375 0.98828125 C-1.08693359 0.49908203 -1.08693359 0.49908203 0 0 Z " fill="#1B1A1B" transform="translate(905,256)"/>
<path d="M0 0 C1.98012969 2.97019453 3.6501925 5.69297163 5 9 C4.078125 11.19140625 4.078125 11.19140625 3 13 C2.29819469 11.5903653 1.61406042 10.17192359 0.9375 8.75 C0.55464844 7.96109375 0.17179688 7.1721875 -0.22265625 6.359375 C-1.08564091 3.74006478 -0.93045933 2.55144824 0 0 Z " fill="#151515" transform="translate(521,666)"/>
<path d="M0 0 C0.66 0.33 1.32 0.66 2 1 C2 1.99 2 2.98 2 4 C-1.63 4.66 -5.26 5.32 -9 6 C-8.34 5.67 -7.68 5.34 -7 5 C-7 4.01 -7 3.02 -7 2 C-6.030625 1.855625 -5.06125 1.71125 -4.0625 1.5625 C-1.13513227 1.32437659 -1.13513227 1.32437659 0 0 Z " fill="#1A1A1A" transform="translate(131,742)"/>
<path d="M0 0 C1.25955231 3.77865693 0.48087189 5.03411786 -0.9375 8.6875 C-1.31777344 9.68136719 -1.69804687 10.67523437 -2.08984375 11.69921875 C-2.39019531 12.45847656 -2.69054687 13.21773437 -3 14 C-4.0546875 12.140625 -4.0546875 12.140625 -5 10 C-4.125 7.75 -4.125 7.75 -3 6 C-3.66 5.67 -4.32 5.34 -5 5 C-4.01 4.67 -3.02 4.34 -2 4 C-2 3.34 -2 2.68 -2 2 C-1.34 2 -0.68 2 0 2 C0 1.34 0 0.68 0 0 Z " fill="#1A191A" transform="translate(262,539)"/>
<path d="M0 0 C0.33 0 0.66 0 1 0 C1.50354867 2.43681587 2.00296756 4.87435439 2.5 7.3125 C2.64308594 8.00279297 2.78617187 8.69308594 2.93359375 9.40429688 C3.52625044 12.32524773 4 15.01108122 4 18 C3.01 17.67 2.02 17.34 1 17 C1.33 15.02 1.66 13.04 2 11 C1.34 10.67 0.68 10.34 0 10 C-0.89093449 6.35526801 -1.23666047 3.57257469 0 0 Z " fill="#242324" transform="translate(485,526)"/>
<path d="M0 0 C0.33 0 0.66 0 1 0 C1.66 5.61 2.32 11.22 3 17 C0 15 0 15 -0.75 11.3125 C-1.11759402 7.36987396 -0.72780288 3.88161536 0 0 Z " fill="#1E1E1E" transform="translate(473,449)"/>
<path d="M0 0 C0.66 0 1.32 0 2 0 C2.21755666 5.4389165 2.10428384 9.87080814 0 15 C-0.33 15 -0.66 15 -1 15 C-1.10251672 9.87416389 -1.03590199 5.05002222 0 0 Z " fill="#141414" transform="translate(755,448)"/>
<path d="M0 0 C-2.89066059 9.59453303 -2.89066059 9.59453303 -6 13 C-6 11.35 -6 9.7 -6 8 C-5.34 8 -4.68 8 -4 8 C-4.226875 7.236875 -4.45375 6.47375 -4.6875 5.6875 C-5 3 -5 3 -3.6875 1.1875 C-2 0 -2 0 0 0 Z " fill="#1B1A1A" transform="translate(349,272)"/>
<path d="M0 0 C0.88300781 0.19464844 1.76601563 0.38929688 2.67578125 0.58984375 C3.67158203 0.82380859 3.67158203 0.82380859 4.6875 1.0625 C4.6875 1.7225 4.6875 2.3825 4.6875 3.0625 C-5.87058656 2.09894647 -5.87058656 2.09894647 -10.3125 1.0625 C-10.3125 0.7325 -10.3125 0.4025 -10.3125 0.0625 C-6.51681539 -0.91548721 -3.8119001 -0.86403069 0 0 Z " fill="#1E1E1E" transform="translate(790.3125,262.9375)"/>
<path d="M0 0 C0.99 0.33 1.98 0.66 3 1 C0.62176166 5.84455959 0.62176166 5.84455959 -1 8 C-3.75 8.9375 -3.75 8.9375 -6 9 C-4.47291037 5.56404834 -2.40072955 2.88087546 0 0 Z " fill="#181818" transform="translate(350,228)"/>
<path d="M0 0 C1.98 0 3.96 0 6 0 C5.43628586 3.26954202 4.50037734 4.82575883 2 7 C2 6.34 2 5.68 2 5 C1.34 5 0.68 5 0 5 C0 3.35 0 1.7 0 0 Z " fill="#171616" transform="translate(776,710)"/>
<path d="M0 0 C0.33 0 0.66 0 1 0 C1.98329211 4.05607995 2.23600253 7.83062202 2 12 C1.34 12.66 0.68 13.32 0 14 C-0.19393875 11.85473901 -0.37998676 9.70876323 -0.5625 7.5625 C-0.71912109 5.77005859 -0.71912109 5.77005859 -0.87890625 3.94140625 C-0.91886719 2.97074219 -0.95882813 2.00007812 -1 1 C-0.67 0.67 -0.34 0.34 0 0 Z " fill="#141414" transform="translate(427,539)"/>
<path d="M0 0 C0.66 0 1.32 0 2 0 C1.38545304 3.99455527 -0.70646737 6.74466336 -3 10 C-3.33 9.34 -3.66 8.68 -4 8 C-4.66 7.67 -5.32 7.34 -6 7 C-5.04882866 5.8274869 -4.08882991 4.66212985 -3.125 3.5 C-2.59132813 2.8503125 -2.05765625 2.200625 -1.5078125 1.53125 C-0.76144531 0.77328125 -0.76144531 0.77328125 0 0 Z " fill="#323232" transform="translate(547,457)"/>
<path d="M0 0 C0.66 0.99 1.32 1.98 2 3 C1.375 6.125 1.375 6.125 0 9 C-2.125 9.875 -2.125 9.875 -4 10 C-2.8905928 6.51329166 -1.73662334 3.22515763 0 0 Z " fill="#171717" transform="translate(318,274)"/>
<path d="M0 0 C0.33 0 0.66 0 1 0 C0.67 6.6 0.34 13.2 0 20 C-0.33 20 -0.66 20 -1 20 C-1.22224251 17.41718164 -1.42823488 14.83477813 -1.625 12.25 C-1.72167969 11.15558594 -1.72167969 11.15558594 -1.8203125 10.0390625 C-2.10381649 6.14088264 -2.27081383 3.29354678 0 0 Z " fill="#222222" transform="translate(761,268)"/>
<path d="M0 0 C2.31 0.33 4.62 0.66 7 1 C1.69688385 6.74504249 1.69688385 6.74504249 -2 7 C-2.66 6.67 -3.32 6.34 -4 6 C-3.34 5.34 -2.68 4.68 -2 4 C-1.01 4 -0.02 4 1 4 C0.67 2.68 0.34 1.36 0 0 Z " fill="#171617" transform="translate(534,255)"/>
<path d="M0 0 C0.66 0 1.32 0 2 0 C0.68139111 4.61513112 -1.21355437 8.09897612 -4 12 C-4.9435441 9.46100862 -5.16906025 8.39090725 -4.07421875 5.859375 C-3.61660156 5.16328125 -3.15898437 4.4671875 -2.6875 3.75 C-2.23761719 3.04359375 -1.78773438 2.3371875 -1.32421875 1.609375 C-0.88722656 1.07828125 -0.45023438 0.5471875 0 0 Z " fill="#1C1C1C" transform="translate(200,682)"/>
<path d="M0 0 C2.33046701 3.6413547 2.30891093 6.7524747 2 11 C1.01 12.485 1.01 12.485 0 14 C-0.66 13.67 -1.32 13.34 -2 13 C-1.48041715 8.62065881 -0.94324258 4.31196609 0 0 Z " fill="#1E1E1E" transform="translate(685,658)"/>
<path d="M0 0 C0.99 0 1.98 0 3 0 C3 0.66 3 1.32 3 2 C3.99 2.33 4.98 2.66 6 3 C4.68 3 3.36 3 2 3 C1.34 5.64 0.68 8.28 0 11 C-1.125 9.4375 -1.125 9.4375 -2 7 C-1.125 3.25 -1.125 3.25 0 0 Z " fill="#191819" transform="translate(275,496)"/>
<path d="M0 0 C0.66 0.33 1.32 0.66 2 1 C3.67654729 0.72057545 5.34608154 0.39171753 7 0 C7 0.66 7 1.32 7 2 C5.54618103 2.69699552 4.08677047 3.38233866 2.625 4.0625 C1.81289063 4.44535156 1.00078125 4.82820313 0.1640625 5.22265625 C-0.55007813 5.47917969 -1.26421875 5.73570312 -2 6 C-2.66 5.67 -3.32 5.34 -4 5 C-3.67 4.34 -3.34 3.68 -3 3 C-2.34 3 -1.68 3 -1 3 C-0.67 2.01 -0.34 1.02 0 0 Z " fill="#191819" transform="translate(498,496)"/>
<path d="M0 0 C0.33 0 0.66 0 1 0 C3.29612756 13.6332574 3.29612756 13.6332574 3 20 C1.13437358 18.42702086 0.09761557 17.54489783 -0.34057617 15.09887695 C-0.32486572 14.40238037 -0.30915527 13.70588379 -0.29296875 12.98828125 C-0.28330078 12.23095703 -0.27363281 11.47363281 -0.26367188 10.69335938 C-0.23853516 9.90767578 -0.21339844 9.12199219 -0.1875 8.3125 C-0.17396484 7.51521484 -0.16042969 6.71792969 -0.14648438 5.89648438 C-0.11117089 3.93070033 -0.05736447 1.96526418 0 0 Z " fill="#262627" transform="translate(466,404)"/>
<path d="M0 0 C1.21065165 3.63195496 0.62784815 5.06531629 -0.4375 8.6875 C-0.86869141 10.17830078 -0.86869141 10.17830078 -1.30859375 11.69921875 C-1.53675781 12.45847656 -1.76492188 13.21773438 -2 14 C-4 11 -4 11 -3.828125 8.80859375 C-3.63734375 8.02613281 -3.4465625 7.24367188 -3.25 6.4375 C-3.06953125 5.65246094 -2.8890625 4.86742187 -2.703125 4.05859375 C-2 2 -2 2 0 0 Z " fill="#1B1A1B" transform="translate(304,408)"/>
<path d="M0 0 C1.06863281 0.19464844 2.13726563 0.38929688 3.23828125 0.58984375 C4.45064453 0.82380859 4.45064453 0.82380859 5.6875 1.0625 C5.6875 1.3925 5.6875 1.7225 5.6875 2.0625 C3.0475 2.3925 0.4075 2.7225 -2.3125 3.0625 C-2.3125 3.3925 -2.3125 3.7225 -2.3125 4.0625 C-3.9625 4.0625 -5.6125 4.0625 -7.3125 4.0625 C-6.6525 3.7325 -5.9925 3.4025 -5.3125 3.0625 C-5.3125 2.4025 -5.3125 1.7425 -5.3125 1.0625 C-7.2925 1.0625 -9.2725 1.0625 -11.3125 1.0625 C-11.3125 0.7325 -11.3125 0.4025 -11.3125 0.0625 C-7.22971966 -1.02068662 -4.13371165 -0.77223185 0 0 Z " fill="#2C2C2C" transform="translate(879.3125,232.9375)"/>
<path d="M0 0 C0.66 0.33 1.32 0.66 2 1 C0.7508258 4.45925163 -0.67527795 7.14693203 -3 10 C-3 9.34 -3 8.68 -3 8 C-3.66 8 -4.32 8 -5 8 C-5.33 8.66 -5.66 9.32 -6 10 C-6 7 -6 7 -3.5625 4.4375 C-2.716875 3.633125 -1.87125 2.82875 -1 2 C-0.67 1.34 -0.34 0.68 0 0 Z " fill="#272727" transform="translate(790,696)"/>
<path d="M0 0 C2.7321625 2.29149113 3.90028101 3.64386075 4.875 7.125 C4.936875 8.548125 4.936875 8.548125 5 10 C4.34 10.66 3.68 11.32 3 12 C2.49166409 10.75336669 1.99368855 9.50250613 1.5 8.25 C1.2215625 7.55390625 0.943125 6.8578125 0.65625 6.140625 C0 4 0 4 0 0 Z " fill="#1C1C1B" transform="translate(450,648)"/>
<path d="M0 0 C0.99 0.33 1.98 0.66 3 1 C2.979375 1.9075 2.95875 2.815 2.9375 3.75 C2.85422971 6.84934697 2.85422971 6.84934697 3.625 9.125 C4.13048226 11.6524113 3.2019033 12.78886492 2 15 C1.66048381 13.43883181 1.32867456 11.87598662 1 10.3125 C0.814375 9.44238281 0.62875 8.57226562 0.4375 7.67578125 C0.01027953 5.06287036 -0.07616201 2.64186962 0 0 Z " fill="#1F1F1F" transform="translate(428,554)"/>
<path d="M0 0 C2.97 0.495 2.97 0.495 6 1 C2.8745041 3.64465038 -0.08788267 4.84414715 -4 6 C-3.67 5.01 -3.34 4.02 -3 3 C-2.34 3 -1.68 3 -1 3 C-0.67 2.01 -0.34 1.02 0 0 Z " fill="#1B1C1D" transform="translate(146,736)"/>
<path d="M0 0 C0.66 0 1.32 0 2 0 C2.33 4.95 2.66 9.9 3 15 C2.34 15 1.68 15 1 15 C0.67 16.32 0.34 17.64 0 19 C0 12.73 0 6.46 0 0 Z " fill="#2F2F30" transform="translate(690,611)"/>
<path d="M0 0 C4.37934119 0.51958285 8.68803391 1.05675742 13 2 C10.65887549 3.44977894 9.4203071 4.04314411 6.640625 3.7578125 C5.85171875 3.54898437 5.0628125 3.34015625 4.25 3.125 C3.45078125 2.92132813 2.6515625 2.71765625 1.828125 2.5078125 C0.92320312 2.25644531 0.92320312 2.25644531 0 2 C0 1.34 0 0.68 0 0 Z " fill="#1F1F1F" transform="translate(356,466)"/>
<path d="M0 0 C3 3 3 3 3.36328125 4.9375 C3.34652344 5.618125 3.32976562 6.29875 3.3125 7 C3.30863281 7.680625 3.30476563 8.36125 3.30078125 9.0625 C3 11 3 11 1 14 C0.67 9.38 0.34 4.76 0 0 Z " fill="#201F1F" transform="translate(408,427)"/>
<path d="M0 0 C0.33 0 0.66 0 1 0 C1.66 5.94 2.32 11.88 3 18 C2.01 17.67 1.02 17.34 0 17 C0.03255208 14.98177083 0.06510417 12.96354167 0.09765625 10.9453125 C0.12649242 8.91814596 0.12649242 8.91814596 -1 7 C-0.71758117 4.6599583 -0.38749213 2.32495277 0 0 Z " fill="#262626" transform="translate(459,353)"/>
<path d="M0 0 C1.15957207 3.47871621 0.77456651 4.34219645 -0.4375 7.6875 C-0.86869141 8.89986328 -0.86869141 8.89986328 -1.30859375 10.13671875 C-1.53675781 10.75160156 -1.76492188 11.36648438 -2 12 C-4.13181214 8.25712373 -3.95685425 6.21015871 -3 2 C-2.01 2 -1.02 2 0 2 C0 1.34 0 0.68 0 0 Z " fill="#1E1D1E" transform="translate(329,322)"/>
<path d="M0 0 C-0.66 0 -1.32 0 -2 0 C-2 0.66 -2 1.32 -2 2 C-6.62921525 3.0161692 -10.34462607 2.83796731 -15 2 C-15 1.67 -15 1.34 -15 1 C-13.0641649 0.63684334 -11.12624752 0.28477269 -9.1875 -0.0625 C-8.10855469 -0.25972656 -7.02960937 -0.45695313 -5.91796875 -0.66015625 C-3 -1 -3 -1 0 0 Z " fill="#292929" transform="translate(908,233)"/>
<path d="M0 0 C0.66 0.33 1.32 0.66 2 1 C0.93106782 2.03590338 -0.15578488 3.05333942 -1.25 4.0625 C-2.15492188 4.91521484 -2.15492188 4.91521484 -3.078125 5.78515625 C-4.02945313 6.38650391 -4.02945313 6.38650391 -5 7 C-6.32 6.67 -7.64 6.34 -9 6 C-6.03 4.02 -3.06 2.04 0 0 Z " fill="#1F1F1F" transform="translate(637,725)"/>
<path d="M0 0 C1 4 1 4 -0.9375 7.25 C-1.618125 8.1575 -2.29875 9.065 -3 10 C-3.99 9.34 -4.98 8.68 -6 8 C-4.02 5.36 -2.04 2.72 0 0 Z " fill="#1B1C1C" transform="translate(163,682)"/>
<path d="M0 0 C0.33 0 0.66 0 1 0 C0.67 5.61 0.34 11.22 0 17 C-0.33 17 -0.66 17 -1 17 C-1.22126178 14.54220024 -1.42750395 12.08472352 -1.625 9.625 C-1.68945312 8.92632813 -1.75390625 8.22765625 -1.8203125 7.5078125 C-1.96119739 5.67630889 -1.98761659 3.83687252 -2 2 C-1.34 1.34 -0.68 0.68 0 0 Z " fill="#2A2A2B" transform="translate(752,579)"/>
<path d="M0 0 C0.33 0 0.66 0 1 0 C1.66 4.29 2.32 8.58 3 13 C0 11 0 11 -0.75 7.625 C-0.95630523 4.63357422 -0.99560417 2.76556715 0 0 Z " fill="#1E1D1D" transform="translate(494,571)"/>
<path d="M0 0 C-7.71428571 6 -7.71428571 6 -11 6 C-8.929767 -0.21069899 -6.33724765 -0.35871213 0 0 Z " fill="#1E1E1E" transform="translate(165,504)"/>
<path d="M0 0 C3.96 0.33 7.92 0.66 12 1 C12 1.66 12 2.32 12 3 C7.98195309 3.84098656 4.98196457 4.05404945 1 3 C0.67 2.01 0.34 1.02 0 0 Z " fill="#212021" transform="translate(379,471)"/>
<path d="M0 0 C0.33 0.66 0.66 1.32 1 2 C1.99 1.67 2.98 1.34 4 1 C3.34 3.64 2.68 6.28 2 9 C1.67 8.01 1.34 7.02 1 6 C0.34 6 -0.32 6 -1 6 C-1.042721 4.33388095 -1.04063832 2.66617115 -1 1 C-0.67 0.67 -0.34 0.34 0 0 Z " fill="#1C1C1C" transform="translate(329,313)"/>
<path d="M0 0 C3.01111938 4.51667907 3.10067926 7.6639991 3 13 C2.67 12.01 2.34 11.02 2 10 C1.34 10 0.68 10 0 10 C0 6.7 0 3.4 0 0 Z " fill="#151515" transform="translate(451,300)"/>
<path d="M0 0 C5.28 0.33 10.56 0.66 16 1 C16 1.33 16 1.66 16 2 C14.3603125 2.2165625 14.3603125 2.2165625 12.6875 2.4375 C9.06877013 2.88288104 9.06877013 2.88288104 6 4 C5.67 3.34 5.34 2.68 5 2 C2.47266765 1.34444881 2.47266765 1.34444881 0 1 C0 0.67 0 0.34 0 0 Z " fill="#2B2A2B" transform="translate(669,191)"/>
<path d="M0 0 C0.66 0 1.32 0 2 0 C1.88541307 1.43836751 1.75790884 2.87570966 1.625 4.3125 C1.55539062 5.11300781 1.48578125 5.91351562 1.4140625 6.73828125 C1 9 1 9 -1 12 C-2.36884358 7.48281619 -1.47075246 4.41225737 0 0 Z " fill="#1A1A1A" transform="translate(744,627)"/>
<path d="M0 0 C0 0.99 0 1.98 0 3 C-2 4.6875 -2 4.6875 -4 6 C-4 5.01 -4 4.02 -4 3 C-6.31 2.67 -8.62 2.34 -11 2 C-11 1.67 -11 1.34 -11 1 C-7.27569643 0.30710631 -3.78916254 -0.11144596 0 0 Z " fill="#1C1C1C" transform="translate(248,493)"/>
<path d="M0 0 C1.37251933 0.11271898 2.74374297 0.24222031 4.11328125 0.38671875 C4.81517578 0.44794922 5.51707031 0.50917969 6.24023438 0.57226562 C7.97007795 0.72524499 9.69816622 0.89784477 11.42578125 1.07421875 C11.42578125 1.40421875 11.42578125 1.73421875 11.42578125 2.07421875 C5.48578125 2.40421875 -0.45421875 2.73421875 -6.57421875 3.07421875 C-3.57421875 0.07421875 -3.57421875 0.07421875 0 0 Z " fill="#2D2D2D" transform="translate(201.57421875,491.92578125)"/>
<path d="M0 0 C0.99 0.99 1.98 1.98 3 3 C-2.28 2.67 -7.56 2.34 -13 2 C-13 1.67 -13 1.34 -13 1 C-3.05232558 -0.34883721 -3.05232558 -0.34883721 0 0 Z " fill="#2B2B2B" transform="translate(498,487)"/>
<path d="M0 0 C0.99 0.33 1.98 0.66 3 1 C2.67 5.62 2.34 10.24 2 15 C1.67 15 1.34 15 1 15 C0.67 10.05 0.34 5.1 0 0 Z " fill="#232222" transform="translate(394,318)"/>
<path d="M0 0 C0.33 0.99 0.66 1.98 1 3 C0.67 3.66 0.34 4.32 0 5 C-0.66 5 -1.32 5 -2 5 C-2.12375 5.61875 -2.2475 6.2375 -2.375 6.875 C-3 9 -3 9 -5 11 C-5.33 10.01 -5.66 9.02 -6 8 C-5.67 7.34 -5.34 6.68 -5 6 C-4.34 6 -3.68 6 -3 6 C-2.690625 5.195625 -2.38125 4.39125 -2.0625 3.5625 C-1 1 -1 1 0 0 Z " fill="#1B1B1B" transform="translate(333,250)"/>
<path d="M0 0 C0.33 0 0.66 0 1 0 C1.33 5.61 1.66 11.22 2 17 C1.67 15.68 1.34 14.36 1 13 C0.34 13 -0.32 13 -1 13 C-0.67 8.71 -0.34 4.42 0 0 Z " fill="#2E2E2D" transform="translate(445,229)"/>
<path d="M0 0 C0.66 1.32 1.32 2.64 2 4 C0.35 5.32 -1.3 6.64 -3 8 C-3.66 7.34 -4.32 6.68 -5 6 C-3.35 4.02 -1.7 2.04 0 0 Z " fill="#1A1A1A" transform="translate(343,237)"/>
<path d="M0 0 C-0.99 0.495 -0.99 0.495 -2 1 C-2 1.66 -2 2.32 -2 3 C-4.64 2.67 -7.28 2.34 -10 2 C-5.86678317 -0.75547789 -4.77928863 -1.13193678 0 0 Z " fill="#222222" transform="translate(107,741)"/>
<path d="M0 0 C3.63 0.33 7.26 0.66 11 1 C7.38863788 2.80568106 6.455469 3.24851563 2.75 3.125 C0.89375 3.063125 0.89375 3.063125 -1 3 C-0.67 2.01 -0.34 1.02 0 0 Z " fill="#181819" transform="translate(710,703)"/>
<path d="M0 0 C3.7952131 1.49097658 5.61042731 3.75700849 8 7 C4.84859577 6.65930765 3.39218439 6.41923159 1.1875 4.0625 C0 2 0 2 0 0 Z " fill="#161615" transform="translate(536,693)"/>
<path d="M0 0 C0.33 0.66 0.66 1.32 1 2 C0.22265625 4.1640625 0.22265625 4.1640625 -0.9375 6.625 C-1.31777344 7.44226563 -1.69804688 8.25953125 -2.08984375 9.1015625 C-2.39019531 9.72804688 -2.69054687 10.35453125 -3 11 C-3.66 10.01 -4.32 9.02 -5 8 C-2.70833333 1.35416667 -2.70833333 1.35416667 0 0 Z " fill="#1C1C1D" transform="translate(737,655)"/>
<path d="M0 0 C-5.15171623 0.09038099 -9.91913204 -0.15318867 -15 -1 C-15 -1.33 -15 -1.66 -15 -2 C-8.80040487 -3.07300685 -5.47574739 -2.9334361 0 0 Z " fill="#232323" transform="translate(374,514)"/>
<path d="M0 0 C1.15957207 3.47871621 0.77456651 4.34219645 -0.4375 7.6875 C-0.72496094 8.49574219 -1.01242187 9.30398438 -1.30859375 10.13671875 C-1.65083984 11.05904297 -1.65083984 11.05904297 -2 12 C-2.33 12 -2.66 12 -3 12 C-3.28846154 4.5 -3.28846154 4.5 -1 1 C-0.67 0.67 -0.34 0.34 0 0 Z " fill="#1C1C1C" transform="translate(323,341)"/>
<path d="M0 0 C0.33 0 0.66 0 1 0 C1.33 4.95 1.66 9.9 2 15 C1.01 14.34 0.02 13.68 -1 13 C-0.67 8.71 -0.34 4.42 0 0 Z " fill="#272727" transform="translate(448,263)"/>
<path d="M0 0 C3.53586014 3.17320782 5.58578031 5.16743695 6 10 C3.66475218 7.74259377 1.81294927 5.7194239 0 3 C0 2.01 0 1.02 0 0 Z " fill="#151515" transform="translate(474,701)"/>
<path d="M0 0 C2.78637633 4.1795645 1.79562512 6.14668677 1 11 C0.01 10.34 -0.98 9.68 -2 9 C-1.34 6.03 -0.68 3.06 0 0 Z " fill="#212121" transform="translate(286,355)"/>
<path d="M0 0 C0.66 0 1.32 0 2 0 C1.32829194 3.8063457 0.27253436 7.35206816 -1 11 C-2.1875 9.4375 -2.1875 9.4375 -3 7 C-1.625 3.25 -1.625 3.25 0 0 Z " fill="#191819" transform="translate(341,285)"/>
<path d="M0 0 C0.33 0 0.66 0 1 0 C1.25 2.3125 1.25 2.3125 1 5 C-1 6.8125 -1 6.8125 -3 8 C-3.33 7.34 -3.66 6.68 -4 6 C-3.67 5.01 -3.34 4.02 -3 3 C-2.34 3 -1.68 3 -1 3 C-0.67 2.01 -0.34 1.02 0 0 Z " fill="#171616" transform="translate(180,709)"/>
<path d="M0 0 C0.99 0.33 1.98 0.66 3 1 C3 1.66 3 2.32 3 3 C3.66 3 4.32 3 5 3 C4.67 4.65 4.34 6.3 4 8 C1 4.25 1 4.25 1 2 C0.34 1.67 -0.32 1.34 -1 1 C-0.67 0.67 -0.34 0.34 0 0 Z " fill="#1A1A1A" transform="translate(461,678)"/>
<path d="M0 0 C0.33 0.66 0.66 1.32 1 2 C1.99 1.67 2.98 1.34 4 1 C4.33 1.66 4.66 2.32 5 3 C4.01 3 3.02 3 2 3 C2 3.66 2 4.32 2 5 C-0.64 5 -3.28 5 -6 5 C-6 4.67 -6 4.34 -6 4 C-4.35 3.67 -2.7 3.34 -1 3 C-0.67 2.01 -0.34 1.02 0 0 Z " fill="#1D1D1D" transform="translate(381,510)"/>
<path d="M0 0 C0.99 0.33 1.98 0.66 3 1 C2.39816251 3.02045442 1.72693904 5.02111039 1 7 C0.01 7.495 0.01 7.495 -1 8 C-1.93065133 5.39417629 -2.14917407 4.35801776 -1.0625 1.75 C-0.711875 1.1725 -0.36125 0.595 0 0 Z " fill="#1B1B1B" transform="translate(321,268)"/>
<path d="M0 0 C2 1 2 1 3 3 C-1.43076923 5.09230769 -1.43076923 5.09230769 -4.3125 4.625 C-4.869375 4.41875 -5.42625 4.2125 -6 4 C-4.02 2.68 -2.04 1.36 0 0 Z " fill="#1B1C1C" transform="translate(399,188)"/>
<path d="M0 0 C1.33998047 0.31324219 1.33998047 0.31324219 2.70703125 0.6328125 C3.60808594 0.83648438 4.50914062 1.04015625 5.4375 1.25 C6.46810547 1.50136719 6.46810547 1.50136719 7.51953125 1.7578125 C7.51953125 2.0878125 7.51953125 2.4178125 7.51953125 2.7578125 C1.08453125 3.2528125 1.08453125 3.2528125 -5.48046875 3.7578125 C-5.48046875 3.0978125 -5.48046875 2.4378125 -5.48046875 1.7578125 C-2.48046875 -0.2421875 -2.48046875 -0.2421875 0 0 Z " fill="#393939" transform="translate(616.48046875,739.2421875)"/>
<path d="M0 0 C-1.0975223 2.99324263 -1.67682892 3.84610901 -4.625 5.25 C-5.40875 5.4975 -6.1925 5.745 -7 6 C-6.67 4.35 -6.34 2.7 -6 1 C-3.92446352 0.4465236 -2.15634036 0 0 0 Z " fill="#1A191A" transform="translate(758,733)"/>
<path d="M0 0 C3.63 0.33 7.26 0.66 11 1 C11 1.33 11 1.66 11 2 C7.37 2.33 3.74 2.66 0 3 C0 2.01 0 1.02 0 0 Z " fill="#252525" transform="translate(744,709)"/>
<path d="M0 0 C0.66 1.32 1.32 2.64 2 4 C-0.31 5.65 -2.62 7.3 -5 9 C-3.50163895 5.88801935 -1.80066242 2.9465385 0 0 Z " fill="#1F2020" transform="translate(169,673)"/>
<path d="M0 0 C1.41687119 4.25061356 0.19320039 6.71851625 -1 11 C-1.33 11 -1.66 11 -2 11 C-2.94693195 7.2983569 -3.30443767 5.60887535 -1.5625 2.125 C-1.046875 1.42375 -0.53125 0.7225 0 0 Z " fill="#1A1A1A" transform="translate(295,441)"/>
<path d="M0 0 C2.73192936 5.46385872 3.23059264 7.9837693 2 14 C1.67 14 1.34 14 1 14 C0.67 9.38 0.34 4.76 0 0 Z " fill="#292828" transform="translate(406,412)"/>
<path d="M0 0 C0.33 0 0.66 0 1 0 C1.33 4.29 1.66 8.58 2 13 C1.67 12.34 1.34 11.68 1 11 C0.34 11 -0.32 11 -1 11 C-0.67 7.37 -0.34 3.74 0 0 Z " fill="#292929" transform="translate(457,337)"/>
<path d="M0 0 C0 0.33 0 0.66 0 1 C-4.95 0.67 -9.9 0.34 -15 0 C-15 -0.33 -15 -0.66 -15 -1 C-9.3067505 -2.18609365 -5.57432514 -1.66251802 0 0 Z " fill="#242323" transform="translate(823,269)"/>
<path d="M0 0 C-0.66 0.66 -1.32 1.32 -2 2 C-4.3828125 1.9765625 -4.3828125 1.9765625 -7.125 1.625 C-8.03507813 1.51414062 -8.94515625 1.40328125 -9.8828125 1.2890625 C-10.58148437 1.19367188 -11.28015625 1.09828125 -12 1 C-12 0.67 -12 0.34 -12 0 C-7.66726186 -0.92844389 -4.33273814 -0.92844389 0 0 Z " fill="#1E1E1D" transform="translate(808,266)"/>
<path d="M0 0 C1.65 0 3.3 0 5 0 C3.71937515 1.7074998 2.38232443 3.37373596 1 5 C0.34 5 -0.32 5 -1 5 C-0.67 3.35 -0.34 1.7 0 0 Z " fill="#1C1C1D" transform="translate(764,725)"/>
<path d="M0 0 C2.46800047 1.15173355 4.04783565 2.04783565 6 4 C5.67 4.99 5.34 5.98 5 7 C2.5 5.1875 2.5 5.1875 0 3 C0 2.01 0 1.02 0 0 Z " fill="#161516" transform="translate(490,721)"/>
<path d="M0 0 C3.83736322 0.95934081 4.59660228 1.23609263 7 4 C6.67 4.99 6.34 5.98 6 7 C4.02 4.69 2.04 2.38 0 0 Z " fill="#1A1919" transform="translate(481,713)"/>
<path d="M0 0 C1.65 0.33 3.3 0.66 5 1 C3.3125 3.0625 3.3125 3.0625 1 5 C-1.75 4.75 -1.75 4.75 -4 4 C-3.34 3.525625 -2.68 3.05125 -2 2.5625 C-1.34 2.046875 -0.68 1.53125 0 1 C0 0.67 0 0.34 0 0 Z " fill="#292829" transform="translate(576,704)"/>
<path d="M0 0 C0.33 0.99 0.66 1.98 1 3 C1.66 3 2.32 3 3 3 C2.67 5.64 2.34 8.28 2 11 C1.01 10.67 0.02 10.34 -1 10 C-0.34 10 0.32 10 1 10 C0.67 6.7 0.34 3.4 0 0 Z " fill="#292928" transform="translate(414,468)"/>
<path d="M0 0 C1.31223496 3.93670488 0.24296256 6.12488144 -1 10 C-1.66 9.01 -2.32 8.02 -3 7 C-1.59459459 1.59459459 -1.59459459 1.59459459 0 0 Z " fill="#1C1C1C" transform="translate(309,390)"/>
<path d="M0 0 C1.31223496 3.93670488 0.24296256 6.12488144 -1 10 C-2.125 8.3125 -2.125 8.3125 -3 6 C-1.7 1.7 -1.7 1.7 0 0 Z " fill="#1E1E1E" transform="translate(318,358)"/>
<path d="M0 0 C0.66 0 1.32 0 2 0 C2 2.31 2 4.62 2 7 C1.01 6.67 0.02 6.34 -1 6 C-1.042721 4.33388095 -1.04063832 2.66617115 -1 1 C-0.67 0.67 -0.34 0.34 0 0 Z " fill="#060606" transform="translate(509,320)"/>
<path d="M0 0 C0.33 0.66 0.66 1.32 1 2 C-2.3 1.67 -5.6 1.34 -9 1 C-4.88348273 -1.05825864 -4.13191749 -1.34008135 0 0 Z " fill="#171617" transform="translate(779,261)"/>
<path d="M0 0 C0 3.20395416 -0.74335022 5.09399739 -2 8 C-3.32 7.67 -4.64 7.34 -6 7 C-4.02 4.69 -2.04 2.38 0 0 Z " fill="#222323" transform="translate(672,695)"/>
<path d="M0 0 C-0.66 0 -1.32 0 -2 0 C-2 0.66 -2 1.32 -2 2 C-4.60582371 2.93065133 -5.64198224 3.14917407 -8.25 2.0625 C-8.8275 1.711875 -9.405 1.36125 -10 1 C-3.375 -1.125 -3.375 -1.125 0 0 Z " fill="#2A2929" transform="translate(222,458)"/>
<path d="M0 0 C0.93423645 3.01031744 1.04449911 3.86650268 0 7 C-0.66 7 -1.32 7 -2 7 C-2.33 7.66 -2.66 8.32 -3 9 C-2.5020163 5.26512223 -2.12508244 3.18762365 0 0 Z " fill="#1A1A1A" transform="translate(268,423)"/>
<path d="M0 0 C0.99 0.99 1.98 1.98 3 3 C3 3.66 3 4.32 3 5 C2.34 5 1.68 5 1 5 C-0.63676257 6.9600281 -0.63676257 6.9600281 -2 9 C-1.34 6.03 -0.68 3.06 0 0 Z " fill="#252425" transform="translate(291,339)"/>
<path d="M0 0 C0.598125 0.20625 1.19625 0.4125 1.8125 0.625 C-3.9375 4.625 -3.9375 4.625 -6.1875 4.625 C-5.03076352 1.15479057 -3.91311293 -0.67081936 0 0 Z " fill="#1C1A1B" transform="translate(550.1875,249.375)"/>
<path d="M0 0 C0.66 0.66 1.32 1.32 2 2 C-1.96 1.67 -5.92 1.34 -10 1 C-10 0.67 -10 0.34 -10 0 C-3.375 -1.125 -3.375 -1.125 0 0 Z " fill="#252424" transform="translate(657,237)"/>
<path d="M0 0 C1.32 0.66 2.64 1.32 4 2 C1.525 3.485 1.525 3.485 -1 5 C-1.99 4.34 -2.98 3.68 -4 3 C-2.68 2.01 -1.36 1.02 0 0 Z " fill="#1C1C1C" transform="translate(387,196)"/>
<path d="M0 0 C0.33 0 0.66 0 1 0 C1 3.3 1 6.6 1 10 C0.67 10 0.34 10 0 10 C0 6.7 0 3.4 0 0 Z " fill="#2B2B2C" transform="translate(759,345)"/>
<path d="M0 0 C4 1 4 1 4 1 Z " fill="#3A3939" transform="translate(617,743)"/>
<path d="M0 0 C0.66 0 1.32 0 2 0 C2 0.66 2 1.32 2 2 C1.34 2 0.68 2 0 2 C0 1.34 0 0.68 0 0 Z " fill="#413F41" transform="translate(600,688)"/>
<path d="M0 0 C4 1 4 1 4 1 Z " fill="#2D2C2C" transform="translate(228,495)"/>
<path d="M0 0 C4 1 4 1 4 1 Z " fill="#30302F" transform="translate(356,464)"/>
<path d="M0 0 C3 1 3 1 3 1 Z " fill="#31302F" transform="translate(524,742)"/>
<path d="M0 0 C3 1 3 1 3 1 Z " fill="#39393A" transform="translate(774,706)"/>
<path d="" fill="#2D2E2D" transform="translate(0,0)"/>
<path d="" fill="#353535" transform="translate(0,0)"/>
<path d="" fill="#2F2D2E" transform="translate(0,0)"/>
<path d="M0 0 C3 1 3 1 3 1 Z " fill="#2E2D2D" transform="translate(809,270)"/>
<path d="" fill="#2D2D2C" transform="translate(0,0)"/>
<path d="M0 0 C0.33 0.66 0.66 1.32 1 2 C0.34 1.67 -0.32 1.34 -1 1 C-0.67 0.67 -0.34 0.34 0 0 Z " fill="#323031" transform="translate(803,216)"/>
<path d="M0 0 C3 1 3 1 3 1 Z " fill="#2C2B2D" transform="translate(797,216)"/>
<path d="M0 0 C2 1 2 1 2 1 Z " fill="#302D2E" transform="translate(701,751)"/>
<path d="M0 0 C2 1 2 1 2 1 Z " fill="#363635" transform="translate(121,749)"/>
<path d="M0 0 C2 1 2 1 2 1 Z " fill="#302E2D" transform="translate(650,742)"/>
<path d="M0 0 C2 1 2 1 2 1 Z " fill="#383636" transform="translate(627,742)"/>
<path d="M0 0 C2 1 2 1 2 1 Z " fill="#312F2F" transform="translate(528,742)"/>
<path d="M0 0 C2 1 2 1 2 1 Z " fill="#302F2F" transform="translate(537,741)"/>
<path d="M0 0 C2 1 2 1 2 1 Z " fill="#242321" transform="translate(726,704)"/>
<path d="" fill="#2F2D2C" transform="translate(0,0)"/>
<path d="" fill="#383837" transform="translate(0,0)"/>
<path d="M0 0 C2 1 2 1 2 1 Z " fill="#373837" transform="translate(176,657)"/>
<path d="" fill="#333030" transform="translate(0,0)"/>
<path d="" fill="#343232" transform="translate(0,0)"/>
<path d="" fill="#2E2D2D" transform="translate(0,0)"/>
<path d="" fill="#302E2D" transform="translate(0,0)"/>
<path d="" fill="#2B2A2A" transform="translate(0,0)"/>
<path d="M0 0 C2 1 2 1 2 1 Z " fill="#2E2D2C" transform="translate(377,516)"/>
<path d="M0 0 C2 1 2 1 2 1 Z " fill="#2E2E2C" transform="translate(322,508)"/>
<path d="" fill="#2B272B" transform="translate(0,0)"/>
<path d="M0 0 C2 1 2 1 2 1 Z " fill="#252323" transform="translate(278,500)"/>
<path d="M0 0 C2 1 2 1 2 1 Z " fill="#363435" transform="translate(182,499)"/>
<path d="M0 0 C2 1 2 1 2 1 Z " fill="#312F31" transform="translate(206,495)"/>
<path d="M0 0 C2 1 2 1 2 1 Z " fill="#383939" transform="translate(193,464)"/>
<path d="M0 0 C2 1 2 1 2 1 Z " fill="#373734" transform="translate(212,457)"/>
<path d="" fill="#242324" transform="translate(0,0)"/>
<path d="" fill="#2F302F" transform="translate(0,0)"/>
<path d="" fill="#2F3030" transform="translate(0,0)"/>
<path d="" fill="#29282A" transform="translate(0,0)"/>
<path d="" fill="#2C2C2D" transform="translate(0,0)"/>
<path d="" fill="#3F3E3E" transform="translate(0,0)"/>
<path d="M0 0 C2 1 2 1 2 1 Z " fill="#313030" transform="translate(881,269)"/>
<path d="M0 0 C2 1 2 1 2 1 Z " fill="#353333" transform="translate(880,232)"/>
<path d="M0 0 C2 1 2 1 2 1 Z " fill="#2C2D2C" transform="translate(830,224)"/>
<path d="M0 0 C2 1 2 1 2 1 Z " fill="#2E2D2C" transform="translate(699,193)"/>
<path d="" fill="#3B383A" transform="translate(0,0)"/>
<path d="M0 0 C2 1 2 1 2 1 Z " fill="#383737" transform="translate(432,168)"/>
<path d="" fill="#1D1E1D" transform="translate(0,0)"/>
<path d="" fill="#2F2D2E" transform="translate(0,0)"/>
<path d="" fill="#383838" transform="translate(0,0)"/>
<path d="" fill="#2F2E2E" transform="translate(0,0)"/>
<path d="" fill="#2F3230" transform="translate(0,0)"/>
<path d="" fill="#2F302D" transform="translate(0,0)"/>
<path d="" fill="#3C3A3A" transform="translate(0,0)"/>
<path d="" fill="#312F2F" transform="translate(0,0)"/>
<path d="" fill="#353433" transform="translate(0,0)"/>
<path d="" fill="#373536" transform="translate(0,0)"/>
<path d="" fill="#333030" transform="translate(0,0)"/>
<path d="" fill="#3A3B3B" transform="translate(0,0)"/>
<path d="" fill="#393B3A" transform="translate(0,0)"/>
<path d="" fill="#323130" transform="translate(0,0)"/>
<path d="" fill="#313431" transform="translate(0,0)"/>
<path d="" fill="#3B3A3B" transform="translate(0,0)"/>
<path d="" fill="#3B3A3B" transform="translate(0,0)"/>
<path d="" fill="#39393A" transform="translate(0,0)"/>
<path d="" fill="#3B3B3A" transform="translate(0,0)"/>
<path d="" fill="#2D2D2E" transform="translate(0,0)"/>
<path d="" fill="#2B2B2A" transform="translate(0,0)"/>
<path d="" fill="#363435" transform="translate(0,0)"/>
<path d="" fill="#302E2D" transform="translate(0,0)"/>
<path d="" fill="#343734" transform="translate(0,0)"/>
<path d="" fill="#2E2E2C" transform="translate(0,0)"/>
<path d="" fill="#2C2C2B" transform="translate(0,0)"/>
<path d="" fill="#343434" transform="translate(0,0)"/>
<path d="" fill="#333331" transform="translate(0,0)"/>
<path d="" fill="#2C2B2B" transform="translate(0,0)"/>
<path d="" fill="#373737" transform="translate(0,0)"/>
<path d="" fill="#2D2D2D" transform="translate(0,0)"/>
<path d="" fill="#323334" transform="translate(0,0)"/>
<path d="" fill="#353536" transform="translate(0,0)"/>
<path d="" fill="#343636" transform="translate(0,0)"/>
<path d="" fill="#3B393A" transform="translate(0,0)"/>
<path d="" fill="#292727" transform="translate(0,0)"/>
<path d="" fill="#3E3C3D" transform="translate(0,0)"/>
<path d="" fill="#353432" transform="translate(0,0)"/>
<path d="" fill="#2E2F2E" transform="translate(0,0)"/>
<path d="" fill="#2E2D2D" transform="translate(0,0)"/>
<path d="" fill="#2D2C2E" transform="translate(0,0)"/>
<path d="" fill="#454445" transform="translate(0,0)"/>
<path d="" fill="#353433" transform="translate(0,0)"/>
<path d="" fill="#49494A" transform="translate(0,0)"/>
<path d="" fill="#2B2929" transform="translate(0,0)"/>
<path d="" fill="#343233" transform="translate(0,0)"/>
<path d="" fill="#2D302F" transform="translate(0,0)"/>
<path d="" fill="#393B38" transform="translate(0,0)"/>
<path d="" fill="#2C2A2A" transform="translate(0,0)"/>
<path d="" fill="#2E2E2C" transform="translate(0,0)"/>
<path d="" fill="#353636" transform="translate(0,0)"/>
<path d="" fill="#30302F" transform="translate(0,0)"/>
<path d="" fill="#32312F" transform="translate(0,0)"/>
<path d="" fill="#373537" transform="translate(0,0)"/>
<path d="" fill="#323132" transform="translate(0,0)"/>
<path d="" fill="#303232" transform="translate(0,0)"/>
<path d="" fill="#2C2B28" transform="translate(0,0)"/>
<path d="" fill="#2F2B2D" transform="translate(0,0)"/>
<path d="" fill="#313132" transform="translate(0,0)"/>
<path d="" fill="#323232" transform="translate(0,0)"/>
<path d="" fill="#333233" transform="translate(0,0)"/>
<path d="" fill="#312F32" transform="translate(0,0)"/>
<path d="" fill="#312E30" transform="translate(0,0)"/>
<path d="" fill="#343132" transform="translate(0,0)"/>
<path d="" fill="#353435" transform="translate(0,0)"/>
<path d="" fill="#2D2D2B" transform="translate(0,0)"/>
<path d="" fill="#383636" transform="translate(0,0)"/>
<path d="" fill="#323032" transform="translate(0,0)"/>
<path d="" fill="#2D2C2F" transform="translate(0,0)"/>
<path d="" fill="#2C282B" transform="translate(0,0)"/>
<path d="" fill="#302F31" transform="translate(0,0)"/>
<path d="" fill="#2F302E" transform="translate(0,0)"/>
<path d="" fill="#2E2D2E" transform="translate(0,0)"/>
<path d="" fill="#424447" transform="translate(0,0)"/>
<path d="" fill="#434442" transform="translate(0,0)"/>
<path d="" fill="#322F2F" transform="translate(0,0)"/>
<path d="" fill="#393836" transform="translate(0,0)"/>
<path d="" fill="#302F30" transform="translate(0,0)"/>
<path d="" fill="#343536" transform="translate(0,0)"/>
<path d="" fill="#2F302F" transform="translate(0,0)"/>
<path d="" fill="#343434" transform="translate(0,0)"/>
<path d="" fill="#3F3B3D" transform="translate(0,0)"/>
<path d="" fill="#323134" transform="translate(0,0)"/>
<path d="" fill="#302F2E" transform="translate(0,0)"/>
<path d="" fill="#272627" transform="translate(0,0)"/>
<path d="" fill="#272627" transform="translate(0,0)"/>
<path d="" fill="#2F3130" transform="translate(0,0)"/>
<path d="" fill="#2E2F2F" transform="translate(0,0)"/>
<path d="" fill="#303230" transform="translate(0,0)"/>
<path d="" fill="#353737" transform="translate(0,0)"/>
<path d="" fill="#242222" transform="translate(0,0)"/>
<path d="" fill="#2D2C2C" transform="translate(0,0)"/>
<path d="" fill="#2F2D2E" transform="translate(0,0)"/>
<path d="" fill="#2C292A" transform="translate(0,0)"/>
<path d="" fill="#28282A" transform="translate(0,0)"/>
<path d="" fill="#292627" transform="translate(0,0)"/>
<path d="" fill="#292727" transform="translate(0,0)"/>
<path d="" fill="#2B292A" transform="translate(0,0)"/>
<path d="" fill="#3D3D3B" transform="translate(0,0)"/>
<path d="" fill="#323232" transform="translate(0,0)"/>
<path d="" fill="#3C3A3A" transform="translate(0,0)"/>
<path d="" fill="#3A3A3A" transform="translate(0,0)"/>
<path d="" fill="#282827" transform="translate(0,0)"/>
<path d="" fill="#41403E" transform="translate(0,0)"/>
<path d="" fill="#252627" transform="translate(0,0)"/>
<path d="" fill="#2F2D2F" transform="translate(0,0)"/>
<path d="" fill="#393A38" transform="translate(0,0)"/>
<path d="" fill="#2C2C2B" transform="translate(0,0)"/>
<path d="" fill="#333432" transform="translate(0,0)"/>
<path d="" fill="#3B393A" transform="translate(0,0)"/>
<path d="" fill="#3C3C3B" transform="translate(0,0)"/>
<path d="" fill="#3C3B3D" transform="translate(0,0)"/>
<path d="" fill="#464547" transform="translate(0,0)"/>
<path d="" fill="#393837" transform="translate(0,0)"/>
<path d="" fill="#474545" transform="translate(0,0)"/>
<path d="" fill="#393937" transform="translate(0,0)"/>
<path d="" fill="#2C2C2C" transform="translate(0,0)"/>
<path d="" fill="#2E302F" transform="translate(0,0)"/>
<path d="" fill="#312E2F" transform="translate(0,0)"/>
<path d="" fill="#2E2D2D" transform="translate(0,0)"/>
<path d="" fill="#2B2A2D" transform="translate(0,0)"/>
<path d="" fill="#343333" transform="translate(0,0)"/>
<path d="" fill="#2F2E2D" transform="translate(0,0)"/>
<path d="" fill="#2C2E2C" transform="translate(0,0)"/>
<path d="" fill="#343634" transform="translate(0,0)"/>
<path d="" fill="#2E2F2E" transform="translate(0,0)"/>
<path d="" fill="#323332" transform="translate(0,0)"/>
<path d="" fill="#353535" transform="translate(0,0)"/>
<path d="" fill="#303231" transform="translate(0,0)"/>
<path d="" fill="#2F2F2E" transform="translate(0,0)"/>
<path d="" fill="#2F2C2D" transform="translate(0,0)"/>
<path d="" fill="#2F2F2D" transform="translate(0,0)"/>
<path d="" fill="#302F2E" transform="translate(0,0)"/>
<path d="" fill="#2F2F30" transform="translate(0,0)"/>
<path d="" fill="#323131" transform="translate(0,0)"/>
<path d="" fill="#2F2F2E" transform="translate(0,0)"/>
<path d="" fill="#2D2D2D" transform="translate(0,0)"/>
<path d="" fill="#302E2F" transform="translate(0,0)"/>
<path d="" fill="#2D2F2F" transform="translate(0,0)"/>
<path d="" fill="#2E2F2E" transform="translate(0,0)"/>
<path d="" fill="#2D2D2E" transform="translate(0,0)"/>
<path d="" fill="#2B2D2C" transform="translate(0,0)"/>
<path d="" fill="#302D2E" transform="translate(0,0)"/>
<path d="" fill="#353234" transform="translate(0,0)"/>
<path d="" fill="#2D2D2D" transform="translate(0,0)"/>
<path d="" fill="#363538" transform="translate(0,0)"/>
<path d="" fill="#464647" transform="translate(0,0)"/>
<path d="" fill="#323233" transform="translate(0,0)"/>
<path d="" fill="#433F3F" transform="translate(0,0)"/>
<path d="" fill="#443F42" transform="translate(0,0)"/>
<path d="" fill="#423D3F" transform="translate(0,0)"/>
<path d="" fill="#2A2B2B" transform="translate(0,0)"/>
<path d="" fill="#403E43" transform="translate(0,0)"/>
<path d="" fill="#313331" transform="translate(0,0)"/>
<path d="" fill="#3E3E3E" transform="translate(0,0)"/>
<path d="" fill="#3B3B3B" transform="translate(0,0)"/>
<path d="" fill="#413F3F" transform="translate(0,0)"/>
<path d="" fill="#303030" transform="translate(0,0)"/>
<path d="" fill="#2B292B" transform="translate(0,0)"/>
<path d="" fill="#2B2A2B" transform="translate(0,0)"/>
<path d="" fill="#2E2D2C" transform="translate(0,0)"/>
<path d="" fill="#353536" transform="translate(0,0)"/>
<path d="" fill="#302E2F" transform="translate(0,0)"/>
<path d="" fill="#353535" transform="translate(0,0)"/>
<path d="" fill="#323030" transform="translate(0,0)"/>
<path d="" fill="#3B3C3B" transform="translate(0,0)"/>
<path d="" fill="#2A2C2C" transform="translate(0,0)"/>
<path d="" fill="#3A3739" transform="translate(0,0)"/>
<path d="" fill="#302F2E" transform="translate(0,0)"/>
<path d="" fill="#303130" transform="translate(0,0)"/>
<path d="" fill="#2D2C2E" transform="translate(0,0)"/>
<path d="" fill="#363635" transform="translate(0,0)"/>
<path d="" fill="#282926" transform="translate(0,0)"/>
<path d="" fill="#2C2B2A" transform="translate(0,0)"/>
<path d="" fill="#282727" transform="translate(0,0)"/>
<path d="" fill="#242324" transform="translate(0,0)"/>
<path d="" fill="#242322" transform="translate(0,0)"/>
<path d="" fill="#312E2E" transform="translate(0,0)"/>
<path d="" fill="#292928" transform="translate(0,0)"/>
<path d="" fill="#2D2E2B" transform="translate(0,0)"/>
<path d="" fill="#343332" transform="translate(0,0)"/>
<path d="" fill="#292928" transform="translate(0,0)"/>
<path d="" fill="#272728" transform="translate(0,0)"/>
<path d="" fill="#2D2A29" transform="translate(0,0)"/>
<path d="" fill="#2B2B2A" transform="translate(0,0)"/>
<path d="" fill="#2D2B2C" transform="translate(0,0)"/>
<path d="" fill="#303030" transform="translate(0,0)"/>
<path d="" fill="#2C2C2C" transform="translate(0,0)"/>
<path d="" fill="#2A2A28" transform="translate(0,0)"/>
<path d="" fill="#2E2E2D" transform="translate(0,0)"/>
<path d="" fill="#2F2F2D" transform="translate(0,0)"/>
<path d="" fill="#2D2E2D" transform="translate(0,0)"/>
<path d="" fill="#343333" transform="translate(0,0)"/>
<path d="" fill="#333234" transform="translate(0,0)"/>
<path d="" fill="#2F2F30" transform="translate(0,0)"/>
<path d="" fill="#312F30" transform="translate(0,0)"/>
<path d="" fill="#333132" transform="translate(0,0)"/>
<path d="" fill="#323132" transform="translate(0,0)"/>
<path d="" fill="#333130" transform="translate(0,0)"/>
<path d="" fill="#333434" transform="translate(0,0)"/>
<path d="" fill="#2A282A" transform="translate(0,0)"/>
<path d="" fill="#383837" transform="translate(0,0)"/>
<path d="" fill="#333330" transform="translate(0,0)"/>
<path d="" fill="#383838" transform="translate(0,0)"/>
<path d="" fill="#343333" transform="translate(0,0)"/>
<path d="" fill="#393535" transform="translate(0,0)"/>
<path d="" fill="#2D2C2E" transform="translate(0,0)"/>
<path d="" fill="#383738" transform="translate(0,0)"/>
<path d="" fill="#373633" transform="translate(0,0)"/>
<path d="" fill="#2D2F2A" transform="translate(0,0)"/>
<path d="" fill="#313130" transform="translate(0,0)"/>
<path d="" fill="#312E2E" transform="translate(0,0)"/>
<path d="" fill="#3D3D40" transform="translate(0,0)"/>
<path d="" fill="#32322F" transform="translate(0,0)"/>
<path d="" fill="#3E4040" transform="translate(0,0)"/>
<path d="" fill="#2C2C2C" transform="translate(0,0)"/>
<path d="" fill="#343233" transform="translate(0,0)"/>
<path d="" fill="#2E2F2E" transform="translate(0,0)"/>
<path d="" fill="#2F2E2E" transform="translate(0,0)"/>
<path d="" fill="#2C2A2B" transform="translate(0,0)"/>
<path d="" fill="#373537" transform="translate(0,0)"/>
<path d="" fill="#3A3637" transform="translate(0,0)"/>
<path d="" fill="#353433" transform="translate(0,0)"/>
<path d="" fill="#413F3F" transform="translate(0,0)"/>
<path d="" fill="#373736" transform="translate(0,0)"/>
<path d="" fill="#3F403E" transform="translate(0,0)"/>
<path d="" fill="#3C3B3C" transform="translate(0,0)"/>
<path d="" fill="#333333" transform="translate(0,0)"/>
</svg>
